<svg width="12" height="10" viewBox="0 0 12 10" fill="none" xmlns="http://www.w3.org/2000/svg">
<path d="M0 1C0 0.447715 0.447715 0 1 0H3C3.55228 0 4 0.447715 4 1C4 1.55228 3.55228 2 3 2H1C0.447715 2 0 1.55228 0 1Z" fill="#282828"/>
<path d="M0 5C0 4.44772 0.447715 4 1 4H7C7.55228 4 8 4.44772 8 5C8 5.55228 7.55228 6 7 6H1C0.447715 6 0 5.55228 0 5Z" fill="#282828"/>
<path d="M0 9C0 8.44772 0.447715 8 1 8H11C11.5523 8 12 8.44772 12 9C12 9.55228 11.5523 10 11 10H0.999999C0.447714 10 0 9.55228 0 9Z" fill="#282828"/>
</svg>
