<svg width="97" height="96" viewBox="0 0 97 96" fill="none" xmlns="http://www.w3.org/2000/svg">
<path d="M35.3765 48.3954C27.5112 48.3954 22.0405 53.2798 21.7633 60.553C21.7557 60.8087 21.7486 62.9271 21.7486 63.1442C21.7486 63.3449 21.9104 63.5076 22.1098 63.5076H57.5721C57.7715 63.5076 57.9333 63.3449 57.9333 63.1442C57.9333 62.9271 57.9262 60.8087 57.9184 60.5498C57.6414 53.2798 52.1707 48.3954 44.3054 48.3954H43.572V45.7255C44.5259 45.3409 45.4148 44.8188 46.2112 44.158C48.0143 42.6597 49.2226 40.5736 49.6132 38.2841C49.8866 36.6927 49.9159 34.9163 49.9149 34.1846C51.9346 28.6554 51.9662 23.4277 49.9935 20.5326C48.9055 18.9359 47.2933 18.0993 45.2013 18.0452C40.4384 15.3933 35.3233 15.6897 31.8339 18.8261C28.1595 22.1292 27.3797 27.788 29.7868 33.6094C29.775 34.0284 29.732 36.1131 29.9875 37.9033C30.4882 41.4303 32.8293 44.4048 36.1099 45.7276V48.3954H35.3765ZM57.1966 60.5743C57.202 60.7638 57.2079 62.1065 57.21 62.7807H51.6316V56.6972C51.6316 56.4965 51.4698 56.3338 51.2704 56.3338C51.0709 56.3338 50.9092 56.4965 50.9092 56.6972V62.7807H28.7713V56.6972C28.7713 56.4965 28.6096 56.3338 28.4101 56.3338C28.2106 56.3338 28.0489 56.4965 28.0489 56.6972V62.7807H22.4719C22.474 62.1067 22.4798 60.7645 22.4851 60.5775C22.7869 52.6643 29.1771 49.1223 35.3765 49.1223H36.11C36.1105 49.1823 36.1172 49.2407 36.1205 49.3C36.1239 49.3626 36.1249 49.4257 36.1315 49.4874C36.1382 49.5512 36.1503 49.6132 36.1602 49.676C36.1698 49.7366 36.1769 49.798 36.1893 49.8576C36.2023 49.9197 36.2203 49.9797 36.2363 50.0407C36.2515 50.0988 36.2644 50.1578 36.2823 50.2148C36.3015 50.2759 36.3257 50.3347 36.3479 50.3945C36.3681 50.4487 36.3859 50.504 36.4084 50.557C36.4338 50.6166 36.4639 50.6734 36.4921 50.7313C36.5169 50.782 36.5393 50.8338 36.5662 50.8831C36.5974 50.9405 36.6333 50.9948 36.6674 51.0502C36.6961 51.097 36.7227 51.1452 36.7533 51.1905C36.7908 51.2459 36.8326 51.2978 36.8729 51.3511C36.9048 51.3932 36.9346 51.437 36.9682 51.4777C37.0112 51.5298 37.0583 51.578 37.104 51.6277C37.1392 51.666 37.1723 51.7061 37.2091 51.7428C37.257 51.7908 37.3087 51.8346 37.3592 51.8798C37.3976 51.9143 37.434 51.9509 37.4738 51.9837C37.5276 52.0282 37.585 52.0681 37.6412 52.1095C37.6812 52.139 37.7194 52.1707 37.7606 52.1986C37.8197 52.2386 37.8821 52.2737 37.9435 52.3104C37.9852 52.3352 38.0251 52.3625 38.0677 52.3857C38.1302 52.4198 38.1957 52.4486 38.2603 52.4791C38.3048 52.5001 38.3479 52.5238 38.3933 52.5431C38.4589 52.571 38.5272 52.5932 38.5947 52.6173C38.6417 52.6341 38.6874 52.6538 38.7353 52.6687C38.8079 52.6914 38.883 52.708 38.9575 52.7263C39.0024 52.7373 39.0461 52.7514 39.0916 52.7608C39.1739 52.7777 39.2584 52.788 39.3425 52.7994C39.3822 52.8047 39.4208 52.8134 39.4609 52.8175C39.5859 52.8302 39.7126 52.8368 39.8409 52.8368C39.9691 52.8368 40.0958 52.8302 40.2208 52.8175C40.2609 52.8134 40.2995 52.8047 40.3392 52.7994C40.4233 52.788 40.5078 52.7777 40.5901 52.7608C40.6351 52.7515 40.6783 52.7375 40.7227 52.7267C40.7977 52.7083 40.8734 52.6916 40.9465 52.6687C40.9936 52.654 41.0384 52.6347 41.0847 52.6181C41.1529 52.5938 41.222 52.5713 41.2884 52.5431C41.3339 52.5238 41.3768 52.5001 41.4214 52.4791C41.486 52.4486 41.5515 52.4198 41.6141 52.3857C41.6572 52.3622 41.6975 52.3346 41.7396 52.3095C41.8005 52.2732 41.8625 52.2383 41.9211 52.1987C41.9629 52.1703 42.0018 52.1381 42.0424 52.1082C42.098 52.0672 42.1548 52.0277 42.208 51.9837C42.2477 51.9509 42.2841 51.9144 42.3225 51.8799C42.373 51.8346 42.4248 51.7908 42.4727 51.7428C42.5098 51.7057 42.5433 51.6652 42.5789 51.6265C42.6242 51.5773 42.6709 51.5294 42.7135 51.4778C42.7475 51.4366 42.7777 51.3923 42.81 51.3496C42.8499 51.2969 42.8914 51.2454 42.9285 51.1905C42.9592 51.1452 42.9857 51.097 43.0145 51.0502C43.0486 50.9948 43.0844 50.9405 43.1157 50.8831C43.1425 50.8339 43.1649 50.7821 43.1896 50.7315C43.2179 50.6735 43.2481 50.6166 43.2734 50.557C43.2958 50.5045 43.3134 50.4497 43.3334 50.3961C43.3559 50.3357 43.3803 50.2763 43.3997 50.2146C43.4173 50.1586 43.4298 50.1006 43.4448 50.0436C43.4611 49.9816 43.4795 49.9205 43.4926 49.8574C43.5049 49.7983 43.512 49.7375 43.5214 49.6775C43.5314 49.6143 43.5436 49.5517 43.5504 49.4874C43.557 49.4257 43.5579 49.3625 43.5614 49.3C43.5647 49.2407 43.5714 49.1823 43.5719 49.1223H44.3054C50.5048 49.1223 56.895 52.6643 57.1966 60.5743ZM37.5677 46.1969C37.5969 46.2037 37.6267 46.2077 37.656 46.2142C38.3702 46.374 39.0979 46.4583 39.8301 46.4583C40.557 46.4583 41.2793 46.3749 41.9886 46.2183C42.0304 46.2092 42.0727 46.2035 42.1144 46.1938C42.2469 46.1628 42.3774 46.1223 42.5088 46.0859C42.6224 46.0545 42.7371 46.0282 42.8496 45.9927V49.0896C42.8496 50.755 41.4999 52.1099 39.8409 52.1099C38.182 52.1099 36.8322 50.755 36.8322 49.0896V45.9964C36.9221 46.0247 37.0138 46.0449 37.1043 46.0706C37.2584 46.1144 37.412 46.1606 37.5677 46.1969ZM32.3152 19.3682C35.5866 16.4278 40.4193 16.1808 44.9276 18.7237C44.98 18.7533 45.0387 18.7693 45.0988 18.7702C46.9877 18.7982 48.4341 19.5294 49.3975 20.9436C51.0429 23.358 51.1698 27.5813 49.7972 32.2394C49.7911 32.1671 49.7834 32.0951 49.7768 32.0229C49.7764 32.0183 49.776 32.0138 49.7755 32.0093C49.5426 29.4728 48.9907 27.005 47.0295 25.6598C47.0131 25.6484 46.9969 25.637 46.9803 25.6258C46.8237 25.5212 46.6584 25.4238 46.4836 25.3339C46.4556 25.3194 46.4293 25.3035 46.4009 25.2894C46.2017 25.1914 45.994 25.1001 45.7702 25.0221C45.7477 25.0142 45.7244 25.0137 45.7014 25.0104C45.6892 25.0087 45.6773 25.0047 45.6651 25.0043C45.6606 25.0041 45.6563 25.002 45.6519 25.002C45.6404 25.002 45.6299 25.0079 45.6185 25.009C45.5909 25.0116 45.5643 25.0167 45.5381 25.0256C45.5213 25.0313 45.5057 25.0372 45.4898 25.0454C45.4612 25.06 45.4351 25.079 45.4108 25.1013C45.4038 25.1077 45.3946 25.1104 45.3881 25.1174C44.4367 26.1415 43.4533 26.9168 42.4356 27.461C40.3063 28.5985 38.022 28.6937 35.5363 27.7436C35.042 27.5545 34.5403 27.3274 34.0298 27.056C33.9924 27.0361 33.952 27.0232 33.9102 27.0173L33.9093 27.0173C33.8375 27.0074 33.7674 27.0028 33.6973 26.9973C33.6633 26.9946 33.6283 26.9893 33.5947 26.9877C32.8733 26.9528 32.2404 27.1562 31.7101 27.5959C31.6071 27.6813 31.5098 27.778 31.4151 27.8804C31.3962 27.9009 31.377 27.9209 31.3584 27.9421C31.2692 28.0435 31.1836 28.1522 31.102 28.2693C31.0856 28.2928 31.0701 28.3179 31.054 28.342C30.9804 28.4526 30.9097 28.5693 30.8425 28.6933C30.8316 28.7133 30.8201 28.7318 30.8094 28.7522C30.7381 28.8879 30.6715 29.0335 30.6075 29.185C30.5908 29.2246 30.5743 29.2648 30.558 29.3055C30.4967 29.4592 30.4381 29.6188 30.3838 29.7881C30.373 29.8218 30.3632 29.8579 30.3527 29.8922C30.3064 30.0432 30.263 30.2005 30.222 30.3635C30.2103 30.4103 30.198 30.4558 30.1867 30.5036C30.1427 30.6895 30.1023 30.8839 30.0649 31.085C30.0541 31.1435 30.0439 31.2037 30.0335 31.2636C29.9993 31.4623 29.9672 31.6663 29.9391 31.8795C29.9368 31.8968 29.9337 31.912 29.9314 31.9294C28.2662 26.8612 29.1172 22.243 32.3152 19.3682ZM30.7025 37.8001C30.4325 35.908 30.5103 33.5811 30.5108 33.5649C30.6452 31.1124 31.0892 29.4127 31.8325 28.4999C31.8449 28.4847 31.8581 28.4719 31.8707 28.4572C31.9116 28.409 31.9527 28.361 31.9954 28.3174C32.0514 28.2604 32.1089 28.2074 32.1679 28.1584C32.171 28.1559 32.1743 28.1539 32.1774 28.1513C32.2544 28.0881 32.3347 28.0341 32.4168 27.9846C32.4364 27.9728 32.4558 27.9604 32.4757 27.9494C32.5576 27.904 32.6421 27.8652 32.7293 27.8329C32.7516 27.8246 32.7747 27.8178 32.7974 27.8104C32.8812 27.783 32.9669 27.7603 33.0558 27.7445C33.0672 27.7425 33.0781 27.7391 33.0896 27.7373C33.1873 27.7217 33.2892 27.7153 33.3933 27.7134C33.4197 27.7129 33.4459 27.7121 33.4727 27.7125C33.5613 27.7139 33.6514 27.7182 33.7448 27.7292C33.7464 27.7294 33.7478 27.7294 33.7494 27.7296C34.3168 28.0281 34.8747 28.2794 35.4235 28.4833C38.1526 29.4986 40.6557 29.3416 42.9854 28.007C43.9347 27.4637 44.8554 26.7265 45.7505 25.7914C45.9769 25.882 46.1824 25.9903 46.3787 26.1065C48.4596 27.3444 48.9244 30.005 49.1498 33.3428C49.1648 33.5695 49.1789 33.7987 49.1923 34.0313C49.1968 34.576 49.1896 36.4832 48.9014 38.1606C48.5399 40.2788 47.4212 42.2098 45.7514 43.5974C44.9516 44.261 44.0546 44.7813 43.084 45.1439C42.9454 45.1962 42.8031 45.245 42.6613 45.2903C40.8303 45.8736 38.8514 45.8768 37.021 45.2942C36.8813 45.2494 36.7416 45.2017 36.5972 45.1437C33.4363 43.9591 31.1776 41.1454 30.7025 37.8001Z" fill="black"/>
<path d="M77.0408 56.3731C77.9412 52.1499 78.4032 47.4278 78.4032 42.3067V6.35082C78.4032 6.13159 78.3058 5.92317 78.1371 5.78327C77.9684 5.64337 77.747 5.5864 77.5306 5.62462C72.0008 6.6436 58.7435 5.79265 39.581 0.0313701C39.4418 -0.0104567 39.2947 -0.0104567 39.1555 0.0313701C19.9966 5.79265 6.73818 6.64721 1.20549 5.62462C0.990584 5.58495 0.768108 5.64265 0.599358 5.78327C0.430608 5.9239 0.333252 6.13159 0.333252 6.35082V42.3067C0.333252 77.8219 22.5379 85.8527 39.2399 88.8036C39.2821 88.8116 39.3253 88.8152 39.3682 88.8152C39.4111 88.8152 39.454 88.8116 39.4966 88.8036C46.7884 87.5175 52.7968 85.5588 57.854 82.8446C60.6685 90.7448 68.0496 96 76.5127 96C87.4418 96 96.3333 87.1089 96.3333 76.1799C96.3333 65.4279 87.7261 56.6549 77.0408 56.3731ZM39.3682 87.3267C13.3952 82.6984 1.81018 68.809 1.81018 42.3067V7.21476C7.91871 8.0311 20.9986 7.00995 39.3682 1.50973C57.7414 7.01211 70.8195 8.03254 76.9263 7.21476V42.3067C76.9263 47.4528 76.4579 52.1865 75.5341 56.3872C75.4684 56.3904 75.4038 56.3978 75.3383 56.4016C75.1659 56.4117 74.9942 56.4248 74.8229 56.4396C74.6676 56.4528 74.5128 56.467 74.3587 56.484C74.1892 56.5024 74.0206 56.5236 73.8525 56.5465C73.6985 56.5675 73.5451 56.5896 73.3922 56.6142C73.2262 56.6408 73.0611 56.6697 72.8965 56.7005C72.7443 56.729 72.5926 56.7587 72.4416 56.7908C72.2787 56.8253 72.1167 56.8619 71.9552 56.9004C71.8049 56.9361 71.6553 56.9736 71.5063 57.0129C71.3467 57.0551 71.1879 57.0991 71.0299 57.1451C70.8826 57.1878 70.7362 57.2325 70.5904 57.2787C70.4333 57.3284 70.2772 57.3797 70.1217 57.4334C69.9772 57.4831 69.8337 57.5349 69.6908 57.5879C69.5379 57.6447 69.3858 57.7027 69.2347 57.7631C69.0923 57.8199 68.9512 57.8789 68.8105 57.9389C68.6618 58.0025 68.5138 58.0671 68.3669 58.1342C68.2275 58.1978 68.0894 58.2634 67.9518 58.3303C67.8068 58.4006 67.6626 58.4718 67.5196 58.5454C67.3841 58.6153 67.2501 58.6873 67.1164 58.7601C66.9751 58.8371 66.8343 58.9148 66.6951 58.995C66.5631 59.0713 66.4326 59.1497 66.3025 59.2289C66.1658 59.312 66.0296 59.3955 65.8951 59.4818C65.7663 59.5644 65.6394 59.6493 65.5126 59.7347C65.3809 59.8236 65.2495 59.9127 65.12 60.0046C64.9948 60.0933 64.8718 60.1846 64.7488 60.276C64.622 60.3704 64.4954 60.4649 64.3709 60.5623C64.2497 60.6569 64.1306 60.7543 64.0116 60.8518C63.8899 60.9517 63.7682 61.0514 63.6488 61.1538C63.5319 61.2544 63.4175 61.3575 63.3029 61.4605C63.1862 61.5656 63.0694 61.6705 62.9552 61.7781C62.8431 61.8838 62.7338 61.9921 62.6242 62.1003C62.5124 62.2108 62.4004 62.3208 62.2911 62.4338C62.1838 62.5449 62.0794 62.6587 61.9747 62.7721C61.8685 62.8871 61.762 63.0016 61.6585 63.1191C61.5563 63.235 61.4574 63.3537 61.358 63.4719C61.257 63.592 61.1555 63.7117 61.0572 63.8341C60.9603 63.9549 60.867 64.0784 60.7728 64.2016C60.678 64.3256 60.5825 64.4489 60.4905 64.5753C60.3984 64.7017 60.31 64.8309 60.2208 64.9597C60.1324 65.0873 60.0431 65.2141 59.9576 65.3437C59.8709 65.4751 59.7885 65.6092 59.7049 65.7427C59.6229 65.8737 59.5397 66.0037 59.4607 66.1366C59.3794 66.2736 59.3025 66.4132 59.2244 66.5522C59.1493 66.6857 59.0728 66.8184 59.0006 66.954C58.9253 67.0954 58.8548 67.2396 58.7829 67.3831C58.7142 67.5201 58.6438 67.6561 58.5782 67.7949C58.5097 67.9398 58.4462 68.0873 58.3811 68.2341C58.3187 68.375 58.2544 68.5148 58.1952 68.6572C58.1328 68.8074 58.0759 68.9601 58.0171 69.1119C57.9621 69.2538 57.9051 69.3948 57.8534 69.5381C57.7968 69.6951 57.7461 69.8547 57.6934 70.0133C57.6463 70.1552 57.5967 70.296 57.5528 70.4393C57.5027 70.6025 57.459 70.7684 57.4131 70.9333C57.3737 71.0749 57.3315 71.2153 57.2953 71.3581C57.2521 71.5279 57.2157 71.7003 57.177 71.8719C57.1453 72.0127 57.1102 72.1524 57.0816 72.2941C57.046 72.4701 57.0177 72.6482 56.9868 72.8256C56.9624 72.9659 56.9346 73.1049 56.9133 73.2461C56.8846 73.4359 56.8636 73.6281 56.8404 73.8197C56.8246 73.9501 56.8049 74.0793 56.7917 74.2104C56.7699 74.4269 56.7566 74.6456 56.742 74.864C56.7346 74.9727 56.7231 75.0803 56.7176 75.1896C56.7011 75.5177 56.6925 75.848 56.6925 76.1799C56.6925 76.6506 56.7115 77.1201 56.7444 77.5881C56.7553 77.7423 56.776 77.8951 56.7905 78.0489C56.8198 78.3626 56.8506 78.676 56.8947 78.9875C56.9205 79.1696 56.955 79.3499 56.9857 79.5311C57.0336 79.8129 57.0831 80.0941 57.1431 80.3737C57.1839 80.5643 57.2313 80.7532 57.2777 80.9425C57.3175 81.105 57.3492 81.269 57.3931 81.4306C52.4601 84.1176 46.5549 86.0481 39.3682 87.3267ZM76.5127 94.5231C68.404 94.5231 61.3548 89.3193 58.9717 81.577C58.4395 79.8267 58.1694 78.0109 58.1694 76.1799C58.1694 75.5599 58.2009 74.9465 58.2624 74.3413C59.1538 65.5665 66.348 58.509 75.2415 57.8841C75.5401 57.8635 75.8405 57.8497 76.1427 57.8439L76.1441 57.8437C76.1531 57.8435 76.1619 57.8426 76.1709 57.8424C76.27 57.8367 76.3739 57.8367 76.4738 57.8367C76.4867 57.8367 76.4997 57.8367 76.5127 57.8367C86.6272 57.8367 94.8563 66.0657 94.8563 76.1799C94.8563 86.294 86.6272 94.5231 76.5127 94.5231Z" fill="black"/>
<path d="M85.3043 68.4794L71.4668 82.3169L67.7244 78.5748C67.4359 78.2864 66.9686 78.2864 66.6801 78.5748C66.3917 78.8633 66.3917 79.3306 66.6801 79.619L70.9447 83.8832C71.0889 84.0275 71.2778 84.0996 71.4668 84.0996C71.6557 84.0996 71.8447 84.0275 71.9889 83.8832L86.3485 69.5237C86.637 69.2352 86.637 68.7679 86.3485 68.4794C86.0601 68.191 85.5928 68.191 85.3043 68.4794Z" fill="black"/>
</svg>
