<svg width="74" height="96" viewBox="0 0 74 96" fill="none" xmlns="http://www.w3.org/2000/svg">
<path d="M27.87 65.3031C11.7848 65.3031 0.596923 75.2246 0.0299363 89.9984C0.0144271 90.5178 0 94.8209 0 95.2617C0 95.6694 0.330742 96 0.738669 96H73.2613C73.6693 96 74 95.6694 74 95.2617C74 94.8209 73.9856 90.5178 73.9697 89.9919C73.4031 75.2246 62.2152 65.3031 46.13 65.3031H44.6303V59.88C46.5811 59.0986 48.3988 58.0381 50.0275 56.696C53.7151 53.6525 56.1861 49.415 56.985 44.7645C57.544 41.5319 57.6041 37.9237 57.6019 36.4373C61.7323 25.2061 61.7969 14.5872 57.7626 8.70658C55.5376 5.46335 52.2406 3.76406 47.9623 3.65411C38.2218 -1.73251 27.761 -1.13052 20.625 5.24022C13.1107 11.9497 11.5159 23.4441 16.4386 35.269C16.4145 36.1201 16.3266 40.3547 16.8491 43.9909C17.8731 51.1551 22.6606 57.1973 29.3697 59.8842V65.3031H27.87ZM72.4934 90.0417C72.5046 90.4266 72.5165 93.154 72.5209 94.5235H61.1126V82.1663C61.1126 81.7586 60.7819 81.428 60.3739 81.428C59.966 81.428 59.6353 81.7586 59.6353 82.1663V94.5235H14.3618V82.1663C14.3618 81.7586 14.0311 81.428 13.6232 81.428C13.2153 81.428 12.8845 81.7586 12.8845 82.1663V94.5235H1.47914C1.48347 93.1544 1.49537 90.4281 1.50619 90.0481C2.12331 73.9744 15.1918 66.7796 27.87 66.7796H29.37C29.3711 66.9015 29.3846 67.0202 29.3914 67.1406C29.3985 67.2677 29.4005 67.396 29.4139 67.5213C29.4277 67.6509 29.4524 67.7768 29.4726 67.9044C29.4922 68.0275 29.5068 68.1521 29.5322 68.2732C29.5586 68.3993 29.5956 68.5213 29.6282 68.6451C29.6593 68.7632 29.6857 68.883 29.7223 68.9988C29.7615 69.123 29.8111 69.2424 29.8565 69.3639C29.8977 69.474 29.9342 69.5863 29.9803 69.694C30.0321 69.8149 30.0937 69.9304 30.1515 70.048C30.202 70.1509 30.2479 70.2562 30.3029 70.3564C30.3668 70.4729 30.4401 70.5831 30.5098 70.6958C30.5686 70.7908 30.6229 70.8887 30.6856 70.9808C30.7623 71.0933 30.8478 71.1988 30.9302 71.3069C30.9954 71.3924 31.0563 71.4813 31.125 71.564C31.213 71.6698 31.3093 71.7679 31.4028 71.8688C31.4747 71.9465 31.5425 72.028 31.6176 72.1026C31.7156 72.2 31.8214 72.289 31.9246 72.381C32.0031 72.451 32.0777 72.5252 32.1591 72.592C32.2691 72.6823 32.3864 72.7633 32.5014 72.8475C32.5832 72.9073 32.6613 72.9718 32.7455 73.0284C32.8664 73.1097 32.994 73.181 33.1197 73.2554C33.2048 73.3058 33.2865 73.3613 33.3736 73.4085C33.5014 73.4777 33.6354 73.5362 33.7675 73.5981C33.8585 73.6408 33.9465 73.689 34.0396 73.7283C34.1737 73.7848 34.3134 73.8299 34.4513 73.8789C34.5475 73.913 34.6409 73.9531 34.7388 73.9834C34.8874 74.0295 35.041 74.0632 35.1932 74.1003C35.2851 74.1227 35.3744 74.1514 35.4676 74.1704C35.6359 74.2048 35.8086 74.2257 35.9806 74.2487C36.0618 74.2596 36.1409 74.2772 36.2228 74.2855C36.4784 74.3114 36.7376 74.3248 36.9998 74.3248C37.2621 74.3248 37.5213 74.3114 37.7768 74.2855C37.8588 74.2772 37.9378 74.2596 38.019 74.2487C38.1911 74.2257 38.3638 74.2048 38.532 74.1704C38.6241 74.1516 38.7124 74.1232 38.8033 74.1011C38.9566 74.0638 39.1114 74.0297 39.261 73.9834C39.3573 73.9536 39.449 73.9142 39.5435 73.8806C39.6831 73.8312 39.8244 73.7854 39.9601 73.7283C40.0531 73.6891 40.141 73.6409 40.232 73.5982C40.3642 73.5362 40.4982 73.4777 40.6261 73.4085C40.7143 73.3608 40.7969 73.3048 40.8829 73.2538C41.0075 73.1799 41.1342 73.1092 41.2541 73.0286C41.3396 72.971 41.419 72.9056 41.5021 72.8447C41.6157 72.7615 41.7319 72.6813 41.8407 72.592C41.922 72.5252 41.9965 72.4511 42.075 72.3811C42.1782 72.2891 42.2841 72.2001 42.3822 72.1026C42.4581 72.0272 42.5266 71.9449 42.5993 71.8664C42.6919 71.7664 42.7874 71.6692 42.8746 71.5643C42.9442 71.4806 43.0059 71.3906 43.0718 71.304C43.1535 71.1968 43.2383 71.0923 43.3143 70.9808C43.3771 70.8886 43.4313 70.7908 43.4901 70.6958C43.5599 70.5831 43.6331 70.4729 43.697 70.3564C43.7519 70.2563 43.7978 70.1511 43.8483 70.0484C43.9062 69.9307 43.9678 69.815 44.0197 69.694C44.0654 69.5873 44.1014 69.4761 44.1423 69.367C44.1882 69.2444 44.2382 69.1238 44.2779 68.9984C44.3138 68.8847 44.3395 68.7669 44.3702 68.6511C44.4035 68.5252 44.441 68.4011 44.4679 68.2728C44.4931 68.1528 44.5075 68.0294 44.5269 67.9075C44.5473 67.779 44.5723 67.6519 44.5861 67.5213C44.5995 67.396 44.6015 67.2677 44.6086 67.1406C44.6154 67.0202 44.6289 66.9015 44.63 66.7796H46.13C58.8082 66.7796 71.8767 73.9744 72.4934 90.0417ZM32.351 60.8375C32.4108 60.8513 32.4717 60.8593 32.5316 60.8726C33.9922 61.1972 35.4803 61.3685 36.9778 61.3685C38.4644 61.3685 39.9415 61.199 41.3922 60.881C41.4776 60.8623 41.5642 60.8508 41.6494 60.8311C41.9203 60.7681 42.1873 60.686 42.456 60.6119C42.6883 60.5481 42.9227 60.4947 43.153 60.4226V66.0414V66.7133C43.153 70.096 40.3927 72.8483 36.9998 72.8483C33.6073 72.8483 30.847 70.096 30.847 66.7133V66.0414V60.4302C31.0308 60.4876 31.2183 60.5287 31.4033 60.5808C31.7185 60.6698 32.0327 60.7638 32.351 60.8375ZM21.6093 6.34148C28.2995 0.368713 38.1828 -0.133073 47.4025 5.03222C47.5096 5.09242 47.6297 5.12486 47.7527 5.12667C51.6156 5.18362 54.5735 6.66879 56.5439 9.54144C59.9087 14.4458 60.1684 23.0244 57.3612 32.4862C57.3487 32.3394 57.333 32.1931 57.3195 32.0463C57.3187 32.0371 57.3178 32.0279 57.3169 32.0188C56.8405 26.8665 55.7118 21.8537 51.7011 19.1212C51.6676 19.0982 51.6343 19.075 51.6004 19.0522C51.2803 18.8398 50.9421 18.6419 50.5847 18.4593C50.5275 18.4298 50.4737 18.3976 50.4155 18.3689C50.0081 18.1698 49.5835 17.9844 49.1258 17.826C49.0797 17.81 49.0321 17.8088 48.9849 17.8023C48.96 17.7988 48.9357 17.7907 48.9107 17.7898C48.9017 17.7895 48.8928 17.7852 48.8838 17.7852C48.8603 17.7852 48.8388 17.7971 48.8155 17.7993C48.7591 17.8047 48.7047 17.8151 48.6511 17.8332C48.6167 17.8447 48.5848 17.8567 48.5523 17.8732C48.4938 17.903 48.4405 17.9415 48.3908 17.9868C48.3765 17.9998 48.3576 18.0052 48.3442 18.0195C46.3986 20.0999 44.3875 21.6746 42.3063 22.78C37.9517 25.0906 33.2802 25.2839 28.1967 23.3541C27.1858 22.97 26.1599 22.5087 25.1158 21.9574C25.0394 21.917 24.9568 21.8907 24.8713 21.8788C24.8706 21.8787 24.87 21.8787 24.8693 21.8786C24.8691 21.8786 24.8695 21.8787 24.8693 21.8786C24.7226 21.8585 24.5793 21.8492 24.4358 21.8381C24.3663 21.8327 24.2948 21.8218 24.2261 21.8185C22.7508 21.7476 21.4563 22.1609 20.3718 23.054C20.1613 23.2274 19.9622 23.424 19.7686 23.6319C19.7298 23.6735 19.6907 23.7143 19.6526 23.7572C19.4703 23.9632 19.2951 24.1839 19.1282 24.4219C19.0948 24.4696 19.0629 24.5207 19.0301 24.5696C18.8796 24.7942 18.7351 25.0312 18.5975 25.2831C18.5753 25.3237 18.5517 25.3613 18.5298 25.4027C18.3841 25.6783 18.2478 25.9742 18.1171 26.2819C18.0828 26.3624 18.0491 26.4439 18.0158 26.5266C17.8905 26.8389 17.7705 27.1631 17.6595 27.507C17.6373 27.5755 17.6175 27.6488 17.596 27.7185C17.5013 28.0251 17.4124 28.3446 17.3287 28.6757C17.3047 28.7708 17.2795 28.8633 17.2563 28.9603C17.1663 29.338 17.0838 29.7327 17.0074 30.1412C16.9852 30.2602 16.9643 30.3824 16.9432 30.504C16.8731 30.9078 16.8076 31.3221 16.75 31.7552C16.7454 31.7902 16.7389 31.8212 16.7344 31.8565C13.3289 21.5616 15.0691 12.1809 21.6093 6.34148ZM18.3113 43.7815C17.7591 39.9381 17.9181 35.2115 17.9192 35.1787C18.1941 30.1968 19.1022 26.7445 20.6222 24.8903C20.6475 24.8595 20.6746 24.8334 20.7003 24.8035C20.784 24.7055 20.868 24.6081 20.9554 24.5196C21.0699 24.4038 21.1875 24.2962 21.3082 24.1967C21.3145 24.1915 21.3213 24.1874 21.3276 24.1822C21.485 24.0539 21.6492 23.944 21.8172 23.8435C21.8573 23.8195 21.897 23.7945 21.9376 23.7721C22.105 23.6799 22.2778 23.601 22.4561 23.5354C22.5019 23.5186 22.549 23.5048 22.5955 23.4897C22.7668 23.4341 22.9422 23.388 23.124 23.3559C23.1473 23.3518 23.1694 23.345 23.193 23.3412C23.3928 23.3096 23.6012 23.2965 23.8141 23.2927C23.8681 23.2917 23.9217 23.2901 23.9764 23.2909C24.1578 23.2936 24.3419 23.3024 24.533 23.3249C24.5362 23.3252 24.5392 23.3252 24.5424 23.3256C25.7027 23.932 26.8437 24.4423 27.966 24.8566C33.5471 26.9188 38.6663 26.6 43.4306 23.889C45.3719 22.7854 47.2549 21.2881 49.0854 19.3886C49.5485 19.5726 49.9687 19.7926 50.3703 20.0287C54.6257 22.5431 55.5763 27.9476 56.0373 34.7274C56.068 35.1879 56.0968 35.6535 56.1241 36.126C56.1334 37.2323 56.1187 41.1064 55.5293 44.5136C54.7899 48.8163 52.5021 52.7386 49.0872 55.5572C47.4516 56.905 45.6171 57.962 43.6323 58.6984C43.3488 58.8048 43.0578 58.9039 42.7678 58.9958C39.0232 60.1807 34.9764 60.1872 31.2329 59.0038C30.9473 58.9129 30.6616 58.8159 30.3662 58.6981C23.9021 56.2919 19.2829 50.5765 18.3113 43.7815Z" fill="black"/>
</svg>
