<svg width="97" height="90" viewBox="0 0 97 90" fill="none" xmlns="http://www.w3.org/2000/svg">
<path d="M96.2838 11.9232C96.1998 11.705 96.0181 11.5392 95.7931 11.4764L56.6251 0.527647C56.3135 0.439508 55.9807 0.567021 55.8058 0.840107L48.3333 12.4721L40.8607 0.840107C40.6854 0.567382 40.3526 0.440953 40.0414 0.527647L0.87341 11.4764C0.64841 11.5392 0.466679 11.705 0.382665 11.9232C0.298651 12.1414 0.322809 12.3863 0.447208 12.5843L7.33806 23.514L0.447208 34.4431C0.322809 34.6407 0.298651 34.886 0.382665 35.1038C0.466319 35.322 0.64805 35.4878 0.872689 35.5506L7.47449 37.3975V79.1141C7.47449 79.4561 7.7085 79.7534 8.0406 79.8332L48.1609 89.4794C48.2179 89.4931 48.2756 89.5 48.3333 89.5C48.3906 89.5 48.4486 89.4931 48.5056 89.4794L88.6259 79.8332C88.958 79.7534 89.192 79.4561 89.192 79.1141V37.3975L95.7938 35.5506C96.0184 35.4878 96.2002 35.322 96.2838 35.1038C96.3678 34.886 96.3437 34.6407 96.2193 34.4431L89.3284 23.514L96.2193 12.5843C96.3437 12.3863 96.3678 12.1414 96.2838 11.9232ZM85.2926 23.5137L85.1084 23.5582L48.3333 32.394L15.1385 24.4186L11.7399 23.602L11.3739 23.5137L17.247 22.0972L48.3333 14.5999L79.4195 22.0972L85.2926 23.5137ZM39.9134 2.0997L47.1495 13.3634L8.55442 22.6719L2.22593 12.6345L39.9134 2.0997ZM8.55302 24.3583L47.149 33.6671L39.9105 44.9353L2.22557 34.3936L8.55302 24.3583ZM8.95141 37.8144L40.0382 46.5073C40.1042 46.5257 40.1709 46.5344 40.2369 46.5344C40.244 46.5344 40.2508 46.532 40.2579 46.5317C40.2772 46.5312 40.2953 46.5268 40.3143 46.5247C40.3668 46.5191 40.4177 46.509 40.4675 46.4925C40.4889 46.4853 40.5091 46.4771 40.5298 46.4681C40.5769 46.4476 40.6208 46.4219 40.6629 46.3919C40.6796 46.3799 40.6967 46.3697 40.7125 46.3564C40.7672 46.3099 40.8175 46.2576 40.8578 46.1949L47.5948 35.707V87.8217L8.95141 78.5307V37.8144ZM87.7151 37.8144V78.5307L49.0717 87.8217V35.707L55.8087 46.1949C55.8486 46.257 55.8983 46.309 55.9524 46.3552C55.9699 46.3701 55.9889 46.3816 56.0077 46.3947C56.0475 46.4227 56.0885 46.4469 56.1327 46.4665C56.1558 46.4768 56.1784 46.4859 56.2024 46.4938C56.2489 46.5089 56.2965 46.5182 56.3454 46.5238C56.3673 46.5264 56.3882 46.5314 56.4104 46.532C56.4169 46.5321 56.4231 46.5344 56.4296 46.5344C56.4956 46.5344 56.5623 46.5257 56.6283 46.5073L87.7151 37.8144ZM56.756 44.9353L49.5175 33.6671L88.1135 24.3583L94.4409 34.3936L56.756 44.9353ZM88.1121 22.6719L49.517 13.3634L56.7531 2.0997L94.4406 12.6345L88.1121 22.6719Z" fill="black"/>
</svg>
