<svg width="57" height="20" viewBox="0 0 57 20" fill="none" xmlns="http://www.w3.org/2000/svg">
<path d="M50.0056 12.8298H43.5214C42.9908 12.8298 42.5193 13.3014 42.5193 13.8319C42.5193 14.3624 42.9908 14.834 43.5214 14.834H49.9466C50.4771 14.834 50.9487 14.3624 50.9487 13.8319C50.9487 13.2424 50.5361 12.8298 50.0056 12.8298Z" fill="black"/>
<path d="M14.6371 7.64238C14.3424 7.1708 13.7529 6.99396 13.2813 7.2887L11.5719 8.2908V6.28659C11.5719 5.75607 11.1003 5.28449 10.5698 5.28449C10.0392 5.28449 9.56766 5.75607 9.56766 6.28659V8.2908L7.85818 7.2887C7.3866 6.99396 6.79713 7.1708 6.50239 7.64238C6.20766 8.11396 6.3845 8.70343 6.85608 8.99817L8.56555 10.0003L6.85608 11.0024C6.3845 11.2971 6.20766 11.8866 6.50239 12.3582C6.67923 12.6529 7.03292 12.8298 7.3866 12.8298C7.56345 12.8298 7.74029 12.7708 7.85818 12.7119L9.56766 11.7098V13.714C9.56766 14.2445 10.0392 14.7161 10.5698 14.7161C11.1003 14.7161 11.5719 14.2445 11.5719 13.714V11.7098L13.2813 12.7119C13.4582 12.8298 13.635 12.8298 13.7529 12.8298C14.1066 12.8298 14.4013 12.6529 14.6371 12.3582C14.9319 11.8866 14.755 11.2971 14.2834 11.0024L12.515 10.0003L14.2245 8.99817C14.755 8.70343 14.9319 8.11396 14.6371 7.64238Z" fill="black"/>
<path d="M26.7213 7.64238C26.4266 7.1708 25.8371 6.99396 25.3656 7.2887L23.6561 8.2908V6.28659C23.6561 5.75607 23.1845 5.28449 22.654 5.28449C22.1234 5.28449 21.6519 5.75607 21.6519 6.28659V8.2908L19.9424 7.2887C19.4708 6.99396 18.8813 7.1708 18.5866 7.64238C18.2919 8.11396 18.4687 8.70343 18.9403 8.99817L20.6498 10.0003L18.9403 11.0024C18.4687 11.2971 18.2919 11.8866 18.5866 12.3582C18.7634 12.6529 19.1171 12.8298 19.4708 12.8298C19.6477 12.8298 19.8245 12.7708 19.9424 12.7119L21.6519 11.7098V13.714C21.6519 14.2445 22.1234 14.7161 22.654 14.7161C23.1845 14.7161 23.6561 14.2445 23.6561 13.714V11.7098L25.3656 12.7119C25.5424 12.8298 25.7192 12.8298 25.8371 12.8298C26.1908 12.8298 26.4855 12.6529 26.7213 12.3582C27.0161 11.8866 26.8392 11.2971 26.3677 11.0024L24.5992 10.0003L26.3087 8.99817C26.7803 8.70343 26.9571 8.11396 26.7213 7.64238Z" fill="black"/>
<path d="M38.7466 7.64238C38.4519 7.1708 37.8624 6.99396 37.3908 7.2887L35.6814 8.2908V6.28659C35.6814 5.75607 35.2098 5.28449 34.6792 5.28449C34.1487 5.28449 33.6771 5.75607 33.6771 6.28659V8.2908L31.9677 7.2887C31.4961 6.99396 30.9066 7.1708 30.6119 7.64238C30.3171 8.11396 30.494 8.70343 30.9656 8.99817L32.675 10.0003L31.0245 11.0024C30.5529 11.2971 30.3761 11.8866 30.6708 12.3582C30.8477 12.6529 31.2014 12.8298 31.555 12.8298C31.7319 12.8298 31.9087 12.7708 32.0266 12.7119L33.7361 11.7098V13.714C33.7361 14.2445 34.2077 14.7161 34.7382 14.7161C35.2687 14.7161 35.7403 14.2445 35.7403 13.714V11.7098L37.4498 12.7119C37.6266 12.8298 37.8035 12.8298 37.9214 12.8298C38.275 12.8298 38.5698 12.6529 38.8056 12.3582C39.1003 11.8866 38.9235 11.2971 38.4519 11.0024L36.6835 10.0003L38.3929 8.99817C38.8645 8.70343 39.0414 8.11396 38.7466 7.64238Z" fill="black"/>
<path d="M51.1845 0.509766H6.14873C3.14242 0.509766 0.666626 2.98555 0.666626 5.99187V14.0087C0.666626 17.015 3.14242 19.4908 6.14873 19.4908H51.1845C54.1908 19.4908 56.6666 17.015 56.6666 14.0087V5.99187C56.6666 2.98555 54.1908 0.509766 51.1845 0.509766ZM54.6624 14.0087C54.6624 15.954 53.0708 17.4866 51.1845 17.4866H6.14873C4.20347 17.4866 2.67084 15.895 2.67084 14.0087V5.99187C2.67084 4.04661 4.26242 2.51397 6.14873 2.51397H51.1845C53.1298 2.51397 54.6624 4.10555 54.6624 5.99187V14.0087Z" fill="black"/>
</svg>
