<svg width="97" height="96" viewBox="0 0 97 96" fill="none" xmlns="http://www.w3.org/2000/svg">
<path d="M0.666626 0.738462V95.2615C0.666626 95.6693 0.996914 96 1.40509 96H73.0359C73.444 96 73.7743 95.6693 73.7743 95.2615V0.738462C73.7743 0.330649 73.444 0 73.0359 0H1.40509C0.996914 0 0.666626 0.330649 0.666626 0.738462ZM2.14355 1.47692H72.2974V94.5231H2.14355V1.47692Z" fill="black"/>
<path d="M7.17432 24.3743H22.682C23.0902 24.3743 23.4205 24.0436 23.4205 23.6358V9.14351C23.4205 8.7357 23.0902 8.40505 22.682 8.40505H7.17432C6.76615 8.40505 6.43586 8.7357 6.43586 9.14351V23.6358C6.43586 24.0436 6.76615 24.3743 7.17432 24.3743ZM7.91278 9.88197H21.9436V22.8974H7.91278V9.88197Z" fill="black"/>
<path d="M67.2666 27.882H7.17432C6.76615 27.882 6.43586 28.2126 6.43586 28.6204C6.43586 29.0282 6.76615 29.3589 7.17432 29.3589H67.2666C67.6748 29.3589 68.0051 29.0282 68.0051 28.6204C68.0051 28.2126 67.6748 27.882 67.2666 27.882Z" fill="black"/>
<path d="M67.2666 39.605H7.17432C6.76615 39.605 6.43586 39.9357 6.43586 40.3435C6.43586 40.7513 6.76615 41.082 7.17432 41.082H67.2666C67.6748 41.082 68.0051 40.7513 68.0051 40.3435C68.0051 39.9357 67.6748 39.605 67.2666 39.605Z" fill="black"/>
<path d="M67.2666 16.1589H27.0205C26.6123 16.1589 26.282 16.4895 26.282 16.8974C26.282 17.3052 26.6123 17.6358 27.0205 17.6358H67.2666C67.6748 17.6358 68.0051 17.3052 68.0051 16.8974C68.0051 16.4895 67.6748 16.1589 67.2666 16.1589Z" fill="black"/>
<path d="M7.17432 70.8873H22.682C23.0902 70.8873 23.4205 70.5566 23.4205 70.1488V55.6565C23.4205 55.2487 23.0902 54.918 22.682 54.918H7.17432C6.76615 54.918 6.43586 55.2487 6.43586 55.6565V70.1488C6.43586 70.5566 6.76615 70.8873 7.17432 70.8873ZM7.91278 56.395H21.9436V69.4103H7.91278V56.395Z" fill="black"/>
<path d="M67.2666 74.395H7.17432C6.76615 74.395 6.43586 74.7256 6.43586 75.1334C6.43586 75.5412 6.76615 75.8719 7.17432 75.8719H67.2666C67.6748 75.8719 68.0051 75.5412 68.0051 75.1334C68.0051 74.7256 67.6748 74.395 67.2666 74.395Z" fill="black"/>
<path d="M67.2666 86.118H7.17432C6.76615 86.118 6.43586 86.4487 6.43586 86.8565C6.43586 87.2643 6.76615 87.595 7.17432 87.595H67.2666C67.6748 87.595 68.0051 87.2643 68.0051 86.8565C68.0051 86.4487 67.6748 86.118 67.2666 86.118Z" fill="black"/>
<path d="M67.2666 62.6719H27.0205C26.6123 62.6719 26.282 63.0025 26.282 63.4103C26.282 63.8181 26.6123 64.1488 27.0205 64.1488H67.2666C67.6748 64.1488 68.0051 63.8181 68.0051 63.4103C68.0051 63.0025 67.6748 62.6719 67.2666 62.6719Z" fill="black"/>
<path d="M96.6666 26.6218C96.6666 22.2119 93.0789 18.6242 88.669 18.6242C84.2549 18.6242 80.6642 22.2119 80.6642 26.6218V77.2431C80.6642 77.248 80.6669 77.2519 80.667 77.2567C80.6686 77.3355 80.6869 77.4127 80.7136 77.4879C80.7248 77.5194 80.7384 77.5477 80.7536 77.577C80.7625 77.5945 80.767 77.6136 80.7774 77.6304L88.0387 89.3474C88.1729 89.5644 88.4109 89.6968 88.6661 89.6968C88.9214 89.6968 89.1594 89.5644 89.2935 89.3474L96.5556 77.6304C96.5679 77.6106 96.5735 77.5882 96.5837 77.5676C96.5955 77.5441 96.6063 77.5215 96.6155 77.4966C96.6452 77.4166 96.6643 77.334 96.6653 77.2496C96.6653 77.2474 96.6666 77.2455 96.6666 77.2431V26.6218ZM95.1897 33.1349H82.1411V30.6242H95.1897V33.1349ZM82.1411 76.5029V34.6118H95.1897V76.5029H82.1411ZM82.1411 26.6218C82.1411 23.0261 85.0698 20.1011 88.669 20.1011C92.2647 20.1011 95.1897 23.0261 95.1897 26.6218V29.1472H82.1411V26.6218ZM88.6661 87.5564L82.7322 77.9816H94.6008L88.6661 87.5564Z" fill="black"/>
</svg>
