<svg width="96" height="96" viewBox="0 0 96 96" fill="none" xmlns="http://www.w3.org/2000/svg">
<path d="M63.4499 0H9.09389C6.80904 0 4.94979 1.91178 4.94979 4.2613V17.9416L0.171256 23.6683C0.124738 23.724 0.0878408 23.7855 0.0600659 23.8502C0.0575368 23.8561 0.0573111 23.863 0.0549174 23.8689C0.0245231 23.9452 0.0105228 24.0254 0.00677435 24.1071C0.00623242 24.1188 0 24.1287 0 24.1406V27.6851C0 30.5683 2.16251 32.9982 4.94979 33.4154V91.562C4.94979 94.0089 6.98824 96 9.49349 96H63.0503C65.5555 96 67.5932 94.0089 67.5932 91.562V69.3435C70.5672 71.2826 73.9988 72.3029 77.6048 72.3029C87.7479 72.3029 96 64.0644 96 53.9373C96 43.8144 87.7479 35.5788 77.6048 35.5788C73.9995 35.5788 70.5672 36.5993 67.5932 38.5381V33.4195C70.3978 33.016 72.5734 30.5845 72.5734 27.6851V24.1406C72.5734 23.9109 72.4622 23.7139 72.2976 23.5785L67.5932 17.9409V4.2613C67.5932 1.91178 65.7347 0 63.4499 0ZM6.42968 16.1639V4.2613C6.42968 2.72596 7.62485 1.47692 9.09389 1.47692H63.4499C64.9182 1.47692 66.1134 2.72596 66.1134 4.2613V16.1639L61.9765 11.2096C61.8356 11.0416 61.6275 10.9442 61.4078 10.9442H11.136C10.9163 10.9442 10.7082 11.0416 10.5673 11.2096L6.42968 16.1639ZM61.9997 31.0213C62.0427 31.0819 62.0881 31.1403 62.1333 31.1993C62.2182 31.31 62.3064 31.4172 62.3989 31.5215C62.4487 31.5775 62.4984 31.6334 62.5503 31.6875C62.6524 31.7941 62.7594 31.8952 62.8692 31.9936C62.9164 32.036 62.9613 32.0803 63.0099 32.1213C63.1703 32.256 63.3366 32.384 63.5111 32.5011C63.5277 32.5123 63.5458 32.5213 63.5626 32.5323C63.7217 32.6369 63.8861 32.7332 64.0554 32.8221C64.1163 32.854 64.1793 32.8815 64.2414 32.9113C64.372 32.974 64.5044 33.033 64.6401 33.0862C64.7118 33.1141 64.784 33.1401 64.857 33.1653C64.9933 33.2124 65.1318 33.2535 65.2724 33.2906C65.3436 33.3094 65.4138 33.3294 65.486 33.3454C65.6557 33.3833 65.8285 33.412 66.0035 33.4347C66.0406 33.4395 66.076 33.4495 66.1134 33.4536V39.6058C66.0226 39.6779 65.9376 39.7552 65.8484 39.8288C65.7101 39.9431 65.5717 40.0574 65.4372 40.1751C65.3059 40.2901 65.1785 40.4082 65.051 40.5263C64.9212 40.6466 64.7911 40.7665 64.6653 40.89C64.5412 41.0117 64.4215 41.1366 64.3013 41.2612C64.1797 41.3874 64.0577 41.5129 63.9401 41.6419C63.823 41.7707 63.7105 41.9026 63.5974 42.0343C63.485 42.165 63.3717 42.295 63.2633 42.4287C63.1527 42.5648 63.0472 42.7046 62.9408 42.8436C62.8379 42.9781 62.7338 43.1117 62.6349 43.2489C62.5317 43.3918 62.4341 43.538 62.3353 43.6839C62.2411 43.8225 62.1455 43.9603 62.0554 44.1014C61.96 44.2509 61.8706 44.4036 61.7798 44.5554C61.6947 44.6977 61.6079 44.8388 61.5269 44.9831C61.4395 45.1388 61.3585 45.2978 61.2758 45.456C61.1998 45.6014 61.1215 45.7457 61.0495 45.8932C60.9705 46.0549 60.8983 46.2198 60.8241 46.3839C60.7572 46.5319 60.6877 46.6788 60.6248 46.8287C60.5546 46.9958 60.4916 47.166 60.4265 47.3355C60.3684 47.4864 60.3073 47.636 60.2532 47.7887C60.1921 47.9612 60.1386 48.1367 60.0826 48.3114C60.0336 48.4642 59.9813 48.6159 59.9364 48.77C59.8838 48.9503 59.8395 49.1333 59.7925 49.3154C59.7534 49.4672 59.7103 49.6179 59.6751 49.7708C59.6311 49.9614 59.596 50.1544 59.5581 50.3468C59.529 50.4947 59.4955 50.6412 59.47 50.7901C59.4349 50.9946 59.4093 51.2016 59.3811 51.4078C59.362 51.5472 59.3382 51.6853 59.3223 51.8254C59.2962 52.0545 59.2804 52.2858 59.2628 52.5169C59.2537 52.6367 59.2395 52.7553 59.2327 52.8755C59.2128 53.2275 59.2024 53.5816 59.2024 53.9373C59.2024 54.2928 59.2128 54.6465 59.2327 54.9984C59.2395 55.1185 59.2537 55.2371 59.2628 55.3569C59.2804 55.5878 59.2962 55.8191 59.3223 56.0483C59.3381 56.1882 59.3619 56.3261 59.381 56.4653C59.4092 56.6715 59.4349 56.8787 59.47 57.0833C59.4956 57.2324 59.529 57.379 59.5582 57.5272C59.5961 57.7192 59.6311 57.9121 59.6751 58.1025C59.7106 58.2563 59.7537 58.4075 59.7931 58.5602C59.8399 58.7412 59.884 58.9233 59.9362 59.1027C59.9815 59.2581 60.0341 59.4106 60.0835 59.5646C60.1392 59.7382 60.1923 59.9129 60.2532 60.0847C60.3076 60.2383 60.369 60.3889 60.4275 60.5409C60.4922 60.7091 60.5546 60.878 60.6243 61.0441C60.688 61.196 60.7585 61.345 60.8264 61.4951C60.8997 61.6572 60.9709 61.8202 61.0489 61.9799C61.1218 62.1292 61.2009 62.2752 61.2779 62.4224C61.3597 62.5788 61.4398 62.7362 61.5262 62.8904C61.6079 63.0361 61.6956 63.1787 61.7814 63.3222C61.8716 63.4731 61.9602 63.6247 62.0549 63.7731C62.1454 63.915 62.2415 64.0534 62.336 64.193C62.4344 64.3381 62.5317 64.4841 62.6344 64.6266C62.7332 64.7636 62.8371 64.8972 62.9399 65.0317C63.0468 65.1716 63.1528 65.312 63.2639 65.449C63.3704 65.5805 63.4817 65.7083 63.592 65.8368C63.7077 65.9717 63.8228 66.1069 63.9427 66.2387C64.0562 66.3635 64.1741 66.485 64.2914 66.6068C64.4162 66.7368 64.5407 66.8668 64.6697 66.9934C64.7894 67.1109 64.913 67.2249 65.0362 67.3395C65.1711 67.465 65.306 67.5901 65.4452 67.7122C65.5698 67.8213 65.6979 67.9271 65.8258 68.0333C65.9224 68.1135 66.0149 68.1974 66.1134 68.276V80.012H6.42968V33.4572C6.4444 33.4558 6.45822 33.4507 6.47294 33.4489C6.76049 33.4168 7.04253 33.3608 7.31933 33.2872C7.35794 33.2769 7.39701 33.2694 7.4354 33.2584C7.71057 33.179 7.97757 33.0764 8.23779 32.9575C8.28698 32.9351 8.33557 32.9124 8.38417 32.8886C8.64001 32.7627 8.88759 32.6198 9.12429 32.4564C9.16182 32.4305 9.1974 32.402 9.23439 32.3751C9.47926 32.1975 9.71582 32.0055 9.935 31.7885C10.1068 31.6172 10.262 31.4342 10.4092 31.2462C10.4501 31.1941 10.4886 31.1407 10.5276 31.0871C10.6388 30.9348 10.7419 30.7781 10.837 30.6168C10.8567 30.5834 10.8821 30.5529 10.9011 30.5192C10.9171 30.5477 10.938 30.5728 10.9544 30.6011C11.0494 30.7632 11.1518 30.9202 11.2616 31.0718C11.3008 31.1259 11.3405 31.1791 11.3815 31.2317C11.4949 31.3776 11.6148 31.5177 11.7413 31.652C11.7722 31.6848 11.8005 31.7196 11.8322 31.7517C11.9907 31.9125 12.1588 32.0632 12.3351 32.2049C12.378 32.2392 12.4233 32.2702 12.4672 32.3035C12.6078 32.4101 12.7528 32.5103 12.903 32.6041C12.9604 32.64 13.0176 32.6755 13.0764 32.7094C13.2487 32.8087 13.4259 32.9001 13.6088 32.9818C13.637 32.9942 13.6636 33.0097 13.6921 33.0218C13.9025 33.1118 14.1201 33.187 14.3424 33.252C14.4032 33.2697 14.4652 33.2836 14.5268 33.2995C14.6984 33.3436 14.8726 33.3799 15.0497 33.4082C15.1179 33.4192 15.1854 33.4309 15.2544 33.4395C15.4911 33.4689 15.7306 33.4889 15.9752 33.4889C16.2198 33.4889 16.4594 33.4689 16.6961 33.4395C16.7654 33.4309 16.8331 33.4192 16.9016 33.4082C17.0783 33.3797 17.252 33.3436 17.4231 33.2996C17.4854 33.2836 17.5481 33.2695 17.6096 33.2517C17.8309 33.1868 18.0478 33.1118 18.2574 33.0224C18.2898 33.0085 18.32 32.991 18.352 32.9767C18.5304 32.8965 18.7034 32.8076 18.8717 32.7106C18.9331 32.6753 18.9928 32.6383 19.0528 32.6008C19.1993 32.5093 19.3409 32.4112 19.4783 32.3072C19.5251 32.2716 19.5735 32.2388 19.6193 32.2019C19.7935 32.0618 19.9597 31.9125 20.1166 31.7535C20.1526 31.7171 20.1849 31.6774 20.2199 31.6401C20.3415 31.5101 20.4571 31.3754 20.5665 31.2348C20.61 31.1789 20.6523 31.1227 20.6938 31.0651C20.7999 30.918 20.8988 30.7659 20.991 30.609C21.0098 30.5773 21.0333 30.5486 21.0514 30.5163C21.0687 30.547 21.091 30.574 21.1088 30.6045C21.2024 30.7641 21.3029 30.9184 21.4108 31.0677C21.451 31.1234 21.4919 31.178 21.534 31.2321C21.6457 31.3758 21.7639 31.5137 21.8883 31.6462C21.9209 31.681 21.9508 31.7178 21.9843 31.7517C22.1423 31.912 22.3098 32.0623 22.4853 32.2035C22.5288 32.2385 22.5749 32.2698 22.6194 32.3037C22.7593 32.4097 22.9036 32.5096 23.0531 32.603C23.1111 32.6392 23.1689 32.6751 23.2283 32.7094C23.3997 32.8082 23.5759 32.899 23.7577 32.9804C23.7869 32.9933 23.8143 33.009 23.8436 33.0216C24.054 33.1116 24.2717 33.187 24.4939 33.2519C24.5546 33.2697 24.6164 33.2834 24.6778 33.2993C24.8496 33.3434 25.024 33.3797 25.2015 33.4082C25.2696 33.4192 25.337 33.4309 25.4059 33.4395C25.6427 33.4689 25.8823 33.4889 26.127 33.4889C26.3721 33.4889 26.6121 33.4689 26.8493 33.4395C26.9182 33.4309 26.9856 33.4192 27.0537 33.4082C27.2314 33.3797 27.4061 33.3433 27.578 33.2993C27.6397 33.2834 27.7019 33.2697 27.7628 33.2517C27.9853 33.1868 28.2034 33.1114 28.414 33.0213C28.4431 33.009 28.4703 32.9933 28.4991 32.9805C28.6818 32.8989 28.8587 32.8078 29.0309 32.7085C29.0897 32.6746 29.147 32.6391 29.2045 32.6032C29.3554 32.5091 29.5011 32.4085 29.6423 32.3014C29.6857 32.2684 29.7306 32.2379 29.773 32.2038C29.9496 32.0621 30.118 31.9111 30.2768 31.7499C30.3088 31.7176 30.3375 31.6825 30.3686 31.6493C30.4954 31.5148 30.6155 31.3743 30.7291 31.2281C30.7695 31.1762 30.8088 31.1239 30.8474 31.0706C30.9593 30.916 31.0636 30.7563 31.1601 30.591C31.1754 30.5647 31.1948 30.5414 31.2097 30.5149C31.2272 30.5461 31.25 30.5737 31.2681 30.6045C31.3612 30.7633 31.4613 30.9171 31.5686 31.0659C31.6093 31.1223 31.6508 31.1775 31.6935 31.2323C31.8044 31.3749 31.9217 31.5119 32.0452 31.6435C32.0786 31.6792 32.1093 31.7167 32.1435 31.7515C32.3013 31.9114 32.4685 32.0618 32.6439 32.2028C32.6876 32.2381 32.7339 32.2697 32.7788 32.3035C32.9185 32.4094 33.0625 32.5091 33.2116 32.6023C33.2699 32.6387 33.3279 32.6748 33.3875 32.709C33.5584 32.8076 33.7341 32.8981 33.9153 32.9793C33.945 32.9926 33.973 33.0087 34.003 33.0216C34.2132 33.1114 34.4308 33.1868 34.6529 33.2517C34.7137 33.2695 34.776 33.2834 34.8377 33.2993C35.0094 33.3434 35.1836 33.3797 35.361 33.4082C35.4291 33.4192 35.4965 33.4309 35.5653 33.4395C35.8022 33.4689 36.042 33.4889 36.2867 33.4889C36.5315 33.4889 36.7712 33.4689 37.0081 33.4395C37.0769 33.4309 37.1442 33.4192 37.2122 33.4082C37.3897 33.3797 37.5642 33.3434 37.7359 33.2993C37.7975 33.2834 37.8595 33.2695 37.9202 33.2517C38.1425 33.1868 38.3602 33.1114 38.5706 33.0213C38.5997 33.009 38.627 32.9933 38.6558 32.9804C38.8381 32.8989 39.0147 32.8078 39.1865 32.7087C39.2454 32.6746 39.3026 32.6391 39.3601 32.6032C39.5106 32.5093 39.6559 32.4087 39.7968 32.3017C39.8403 32.2687 39.8855 32.2379 39.9281 32.2037C40.1042 32.0621 40.2722 31.9111 40.4306 31.7502C40.4631 31.7172 40.4923 31.6816 40.5241 31.6477C40.6496 31.5141 40.7687 31.3749 40.8814 31.2297C40.9227 31.1766 40.9629 31.123 41.0024 31.0684C41.1115 30.9173 41.2131 30.7612 41.3076 30.5998C41.3247 30.5706 41.3463 30.5445 41.3629 30.5149C41.3778 30.5414 41.3972 30.5647 41.4125 30.591C41.509 30.7563 41.6134 30.916 41.7252 31.0706C41.7638 31.1239 41.8031 31.1762 41.8435 31.2281C41.9573 31.3745 42.0776 31.5151 42.2047 31.65C42.2356 31.6828 42.264 31.7178 42.2956 31.7497C42.4545 31.9109 42.623 32.0621 42.7997 32.2038C42.8421 32.2379 42.887 32.2684 42.9303 32.3014C43.0716 32.4085 43.2173 32.5091 43.3681 32.6032C43.4257 32.6391 43.483 32.6746 43.5418 32.7085C43.7137 32.8076 43.8905 32.8987 44.073 32.9802C44.1021 32.9931 44.1295 33.0088 44.1588 33.0215C44.3695 33.1114 44.5874 33.1868 44.81 33.2517C44.8708 33.2695 44.9329 33.2834 44.9945 33.2993C45.1665 33.3434 45.3412 33.3797 45.519 33.4082C45.587 33.4192 45.6544 33.4309 45.7233 33.4395C45.9606 33.4689 46.2006 33.4889 46.4457 33.4889C46.6905 33.4889 46.9301 33.4689 47.1671 33.4395C47.2358 33.4309 47.3031 33.4192 47.3711 33.4082C47.5487 33.3797 47.7233 33.3433 47.8952 33.2991C47.9566 33.2834 48.0185 33.2695 48.079 33.2519C48.3014 33.1868 48.5191 33.1114 48.7296 33.0215C48.7587 33.009 48.7859 32.9933 48.8147 32.9805C48.9971 32.8989 49.174 32.8078 49.3459 32.7085C49.4045 32.6746 49.4615 32.6394 49.5188 32.6035C49.6698 32.5093 49.8158 32.4083 49.9572 32.3008C50.0001 32.2684 50.0445 32.2381 50.0865 32.2042C50.263 32.0625 50.4313 31.9114 50.5901 31.7502C50.6221 31.7178 50.6508 31.6825 50.6821 31.6493C50.8083 31.515 50.9279 31.3752 51.0411 31.2296C51.082 31.1767 51.1218 31.1237 51.1609 31.0697C51.2707 30.9177 51.3732 30.7605 51.4682 30.598C51.4848 30.5697 51.5058 30.5443 51.5219 30.5156C51.5381 30.5443 51.5591 30.5697 51.5756 30.598C51.6707 30.7605 51.7731 30.9177 51.883 31.0697C51.9221 31.1237 51.9619 31.1767 52.0028 31.2296C52.116 31.3752 52.2356 31.515 52.3618 31.6493C52.3931 31.6825 52.4218 31.7178 52.4538 31.7502C52.6126 31.9114 52.7808 32.0625 52.9573 32.2042C52.9993 32.2381 53.0438 32.2684 53.0867 32.3008C53.2281 32.4083 53.3741 32.5093 53.5251 32.6035C53.5824 32.6394 53.6394 32.6746 53.698 32.7085C53.8699 32.8078 54.0467 32.8989 54.2292 32.9805C54.258 32.9933 54.2852 33.009 54.3142 33.0215C54.5247 33.1114 54.7425 33.1868 54.9649 33.2519C55.0254 33.2695 55.0873 33.2834 55.1487 33.2991C55.3206 33.3433 55.4951 33.3797 55.6728 33.4082C55.7407 33.4192 55.8081 33.4309 55.8768 33.4395C56.1137 33.4689 56.3534 33.4889 56.5982 33.4889C58.1511 33.4889 59.6114 32.8853 60.7098 31.7885C60.8822 31.6165 61.0379 31.4328 61.1856 31.244C61.2251 31.1935 61.2623 31.1419 61.3 31.0904C61.4139 30.9344 61.5194 30.774 61.6165 30.6088C61.6347 30.5778 61.6583 30.5499 61.6759 30.5185C61.6986 30.5587 61.7271 30.595 61.7506 30.6346C61.8293 30.7666 61.9111 30.8962 61.9997 31.0213ZM60.9338 27.6851C60.9338 28.8404 60.4829 29.9264 59.6635 30.7442C58.844 31.562 57.7558 32.012 56.5982 32.012C54.2071 32.012 52.2619 30.0707 52.2619 27.6851V24.8791H60.9338V27.6851ZM11.6389 24.8791H20.3115V27.6851C20.3115 30.0707 18.3663 32.012 15.9752 32.012C13.5841 32.012 11.6389 30.0707 11.6389 27.6851V24.8791ZM21.7914 24.8791H30.4705V27.6851C30.4705 30.0707 28.5217 32.012 26.127 32.012C23.7366 32.012 21.7914 30.0707 21.7914 27.6851V24.8791ZM31.9504 24.8791H40.6223V27.6851C40.6223 30.0707 38.677 32.012 36.2867 32.012C33.8956 32.012 31.9504 30.0707 31.9504 27.6851V24.8791ZM42.1022 24.8791H50.782V27.6851C50.782 30.0707 48.8368 32.012 46.4457 32.012C44.051 32.012 42.1022 30.0707 42.1022 27.6851V24.8791ZM53.8017 12.4212L60.3434 23.4022H52.0213L48.0954 12.4212H53.8017ZM46.5237 12.4212L50.4496 23.4022H41.9981L40.6938 12.4212H46.5237ZM39.2031 12.4212L40.5074 23.4022H32.0364L33.3407 12.4212H39.2031ZM30.5457 23.4022H22.0934L26.02 12.4212H31.8499L30.5457 23.4022ZM20.5218 23.4022H12.1989L18.7348 12.4212H24.4484L20.5218 23.4022ZM11.4828 12.4212H17.0136L10.4777 23.4022H2.31809L11.4828 12.4212ZM1.47988 27.6851V24.8791H10.159V27.6851C10.159 28.8404 9.7081 29.9264 8.89084 30.7421C8.06347 31.5613 6.97162 32.012 5.8292 32.0178C5.78873 32.0106 5.74754 32.0055 5.70563 32.0048C3.37525 31.955 1.47988 30.0166 1.47988 27.6851ZM66.1134 91.562C66.1134 93.1947 64.739 94.5231 63.0503 94.5231H9.49349C7.80406 94.5231 6.42968 93.1947 6.42968 91.562V81.4889H66.1134V91.562ZM94.5201 53.9373C94.5201 63.2495 86.9321 70.826 77.6048 70.826C73.8372 70.826 70.2755 69.6173 67.3035 67.3305C63.0958 64.107 60.6823 59.2255 60.6823 53.9373C60.6823 52.6147 60.8332 51.3177 61.1252 50.0661C61.8552 46.9374 63.4674 44.0912 65.8111 41.8331C66.2797 41.3816 66.7776 40.9538 67.3035 40.5519L67.3042 40.5512L67.3049 40.5505C70.2762 38.2644 73.8379 37.0558 77.6048 37.0558C86.9321 37.0558 94.5201 44.6286 94.5201 53.9373ZM71.0935 27.6851C71.0935 30.0296 69.1858 31.9673 66.8417 32.0048C66.8107 32.0055 66.7803 32.0077 66.75 32.012C64.3582 32.0084 62.4137 30.0685 62.4137 27.6851V24.8791H71.0935V27.6851ZM62.0654 23.4022L55.5237 12.4212H61.061L70.2257 23.4022H62.0654Z" fill="black"/>
<path d="M32.1094 6.9476H40.4337C40.8427 6.9476 41.1736 6.61731 41.1736 6.20913C41.1736 5.80096 40.8427 5.47067 40.4337 5.47067H32.1094C31.7004 5.47067 31.3694 5.80096 31.3694 6.20913C31.3694 6.61731 31.7004 6.9476 32.1094 6.9476Z" fill="black"/>
<path d="M28.8194 66.6483C27.1885 66.6483 25.7671 67.7452 25.3675 69.3014C25.2844 69.5978 25.2425 69.9065 25.2425 70.218C25.2425 72.1861 26.8474 73.7877 28.8194 73.7877C30.7913 73.7877 32.3955 72.1861 32.3955 70.218C32.3955 69.9065 32.3536 69.5978 32.2748 69.3166C31.8709 67.7452 30.4503 66.6483 28.8194 66.6483ZM28.8194 72.3108C27.6632 72.3108 26.7224 71.3719 26.7224 70.218C26.7224 70.0406 26.7462 69.8654 26.7968 69.6829C27.0324 68.7656 27.8641 68.1252 28.8194 68.1252C29.7739 68.1252 30.6056 68.7656 30.8455 69.6981C30.8918 69.8654 30.9156 70.0406 30.9156 70.218C30.9156 71.3719 29.9755 72.3108 28.8194 72.3108Z" fill="black"/>
<path d="M46.648 66.6483C45.0171 66.6483 43.5958 67.7452 43.1962 69.3014C43.1131 69.5978 43.0712 69.9065 43.0712 70.218C43.0712 72.1861 44.6761 73.7877 46.648 73.7877C48.6178 73.7877 50.2205 72.1861 50.2205 70.218C50.2205 69.9065 50.1786 69.5978 50.0999 69.3159C49.6952 67.7452 48.276 66.6483 46.648 66.6483ZM46.648 72.3108C45.4919 72.3108 44.551 71.3719 44.551 70.218C44.551 70.0406 44.5749 69.8654 44.6255 69.6829C44.861 68.7656 45.6927 68.1252 46.648 68.1252C47.5997 68.1252 48.4299 68.7663 48.6706 69.6981C48.7168 69.8654 48.7407 70.0406 48.7407 70.218C48.7407 71.3719 47.802 72.3108 46.648 72.3108Z" fill="black"/>
<path d="M54.2266 40.5649H21.768L20.766 36.5149C20.6844 36.1846 20.3881 35.9531 20.0478 35.9531H14.7417C14.3327 35.9531 14.0018 36.2834 14.0018 36.6916C14.0018 37.0998 14.3327 37.43 14.7417 37.43H19.4682L24.774 58.9111C23.4938 59.4034 22.579 60.6361 22.579 62.0849C22.579 62.9899 22.9331 63.8452 23.5813 64.4978C24.2309 65.1404 25.0879 65.4938 25.9947 65.4938H51.9866C52.3956 65.4938 52.7265 65.1635 52.7265 64.7553C52.7265 64.3471 52.3956 64.0168 51.9866 64.0168H25.9947C25.4802 64.0168 24.9932 63.8149 24.6276 63.4536C24.2612 63.0844 24.0589 62.5983 24.0589 62.0849C24.0589 61.0197 24.9275 60.1529 25.9947 60.1529H49.7451C49.8398 60.1529 49.9292 60.1314 50.0135 60.0984C50.0372 60.0891 50.0565 60.0743 50.079 60.0627C50.1369 60.0328 50.1906 59.9989 50.2387 59.9553C50.2596 59.9362 50.2765 59.9153 50.2952 59.8938C50.3359 59.8475 50.3699 59.7975 50.3981 59.7415C50.4114 59.7151 50.4229 59.6895 50.4329 59.6616C50.4417 59.6374 50.4571 59.6172 50.4633 59.5918L54.9449 41.4808C54.9998 41.2601 54.9492 41.0272 54.809 40.8483C54.6689 40.6695 54.4542 40.5649 54.2266 40.5649ZM49.1656 58.676H26.2397L22.1332 42.0418H53.2815L49.1656 58.676Z" fill="black"/>
<path d="M77.6012 42.0425C78.0102 42.0425 78.3412 41.7123 78.3412 41.3041V39.0563C78.3412 38.6481 78.0102 38.3178 77.6012 38.3178C77.1922 38.3178 76.8613 38.6481 76.8613 39.0563V41.3041C76.8613 41.7123 77.1922 42.0425 77.6012 42.0425Z" fill="black"/>
<path d="M77.6012 65.8334C77.1922 65.8334 76.8613 66.1637 76.8613 66.5719V68.8204C76.8613 69.2286 77.1922 69.5589 77.6012 69.5589C78.0102 69.5589 78.3412 69.2286 78.3412 68.8204V66.5719C78.3412 66.1637 78.0102 65.8334 77.6012 65.8334Z" fill="black"/>
<path d="M90.2604 54.6764H92.5127C92.9217 54.6764 93.2527 54.3462 93.2527 53.938C93.2527 53.5298 92.9217 53.1995 92.5127 53.1995H90.2604C89.8514 53.1995 89.5205 53.5298 89.5205 53.938C89.5205 54.3462 89.8514 54.6764 90.2604 54.6764Z" fill="black"/>
<path d="M64.942 53.1995H62.689C62.28 53.1995 61.949 53.5298 61.949 53.938C61.949 54.3462 62.28 54.6764 62.689 54.6764H64.942C65.351 54.6764 65.682 54.3462 65.682 53.938C65.682 53.5298 65.351 53.1995 64.942 53.1995Z" fill="black"/>
<path d="M77.6012 56.581C78.803 56.581 79.8088 55.7731 80.1313 54.6764H84.7643C85.1733 54.6764 85.5043 54.3462 85.5043 53.938C85.5043 53.5298 85.1733 53.1995 84.7643 53.1995H80.1313C79.8781 52.3388 79.2036 51.6656 78.3412 51.4129V44.5998C78.3412 44.1916 78.0102 43.8613 77.6012 43.8613C77.1922 43.8613 76.8613 44.1916 76.8613 44.5998V51.4129C75.7624 51.7349 74.9529 52.7385 74.9529 53.938C74.9529 55.3954 76.1408 56.581 77.6012 56.581ZM77.6012 52.7719C78.2458 52.7719 78.7697 53.2947 78.7697 53.938C78.7697 54.5813 78.2458 55.1041 77.6012 55.1041C76.9567 55.1041 76.4328 54.5813 76.4328 53.938C76.4328 53.2947 76.9567 52.7719 77.6012 52.7719Z" fill="black"/>
<path d="M36.2701 91.8151C38.3743 91.8151 40.0861 90.1067 40.0861 88.0075C40.0861 85.9082 38.3743 84.1998 36.2701 84.1998C34.1666 84.1998 32.4548 85.9082 32.4548 88.0075C32.4548 90.1067 34.1666 91.8151 36.2701 91.8151ZM36.2701 85.6767C37.5585 85.6767 38.6062 86.7224 38.6062 88.0075C38.6062 89.2925 37.5585 90.3382 36.2701 90.3382C34.9824 90.3382 33.9346 89.2925 33.9346 88.0075C33.9346 86.7224 34.9824 85.6767 36.2701 85.6767Z" fill="black"/>
</svg>
