<svg width="28" height="28" viewBox="0 0 28 28" fill="none" xmlns="http://www.w3.org/2000/svg">
<rect width="28" height="28" rx="14" fill="#1928DC"/>
<g clip-path="url(#clip0_7294_9045)">
<path d="M21.3332 2H6.6668C4.0894 2 2 4.0894 2 6.6668V21.3332C2 23.9106 4.0894 26 6.6668 26H21.3332C23.9106 26 26 23.9106 26 21.3332V6.6668C26 4.0894 23.9106 2 21.3332 2Z" fill="#1928DC"/>
<mask id="mask0_7294_9045" style="mask-type:luminance" maskUnits="userSpaceOnUse" x="4" y="7" width="21" height="14">
<path d="M24.0103 7.95801H4.07715V20.106H24.0103V7.95801Z" fill="white"/>
</mask>
<g mask="url(#mask0_7294_9045)">
<path d="M7.43434 8.04785V13.4899H6.52732V8.83098H4.98414V13.4899H4.07715V8.04785H7.43434Z" fill="white"/>
<path d="M9.20184 13.2762C8.93012 13.0267 8.73253 12.707 8.63077 12.3524C8.48184 11.8548 8.41099 11.337 8.42082 10.8176C8.4112 10.2838 8.48197 9.75156 8.63077 9.23877C8.73069 8.8725 8.92804 8.54019 9.20184 8.27719C9.44125 8.07185 9.74623 7.95898 10.0616 7.95898C10.377 7.95898 10.682 8.07185 10.9214 8.27719C11.1966 8.53781 11.3937 8.87012 11.4904 9.23667C11.6394 9.75013 11.7101 10.2831 11.7003 10.8176C11.7101 11.3377 11.6392 11.8561 11.4904 12.3545C11.3912 12.7093 11.1949 13.0293 10.9235 13.2783C10.6794 13.4752 10.3752 13.5825 10.0616 13.5825C9.74802 13.5825 9.44388 13.4752 9.19976 13.2783L9.20184 13.2762ZM9.42441 11.8989C9.45988 12.1362 9.54735 12.3628 9.68055 12.5624C9.72248 12.6252 9.77888 12.677 9.84499 12.7136C9.91113 12.7501 9.98505 12.7703 10.0606 12.7723C10.2852 12.7723 10.4616 12.6086 10.5918 12.281C10.7424 11.8064 10.8078 11.3088 10.7849 10.8113C10.7907 10.4329 10.7612 10.0548 10.6967 9.68178C10.6629 9.43655 10.5762 9.2016 10.4427 8.99314C10.4052 8.92483 10.3501 8.86784 10.283 8.82812C10.216 8.78843 10.1395 8.76749 10.0616 8.76749C9.9837 8.76749 9.90721 8.78843 9.84019 8.82812C9.77315 8.86784 9.718 8.92483 9.68055 8.99314C9.54864 9.20182 9.46142 9.4356 9.42441 9.67967C9.3592 10.0519 9.32897 10.4293 9.33411 10.8072C9.32838 11.1732 9.35861 11.5388 9.42441 11.8989Z" fill="white"/>
<path d="M14.5264 8.04785V10.1348H14.0456C13.8714 10.1444 13.6973 10.1127 13.5376 10.0424C13.4115 9.9755 13.3149 9.86395 13.2667 9.7296C13.2026 9.54267 13.1734 9.34553 13.1806 9.14803V8.04785H12.2736V9.14381C12.2473 9.61657 12.3885 10.0835 12.6726 10.4623C12.8217 10.628 13.0066 10.7576 13.2132 10.8412C13.4198 10.9249 13.6427 10.9605 13.8651 10.9452H14.5264V13.4899H15.4335V8.04785H14.5264Z" fill="white"/>
<path d="M19.4344 8.83195H18.3699V13.4909H17.4629V8.83195H16.3984V8.04883H19.4344V8.83195Z" fill="white"/>
<path d="M21.2794 8.04811H22.0058C22.3051 8.03192 22.6026 8.10501 22.8603 8.25806C23.0853 8.40838 23.2601 8.62264 23.3621 8.87323C23.487 9.1841 23.5655 9.51163 23.5952 9.84532L24.0151 13.4796H23.1081L22.8141 10.9413H21.2752V13.4901H20.3682V8.04811H21.2794ZM21.2794 10.1686H22.7281L22.6903 9.85581C22.6735 9.65479 22.6319 9.45664 22.5664 9.26584C22.5205 9.13746 22.4304 9.02957 22.3123 8.9614C22.1601 8.8884 21.9918 8.85516 21.8232 8.86483H21.2794V10.1686Z" fill="white"/>
<path d="M5.07654 14.5738C5.37894 14.5658 5.67743 14.6437 5.93735 14.7985C6.1922 14.9607 6.39088 15.1974 6.50633 15.4766C6.65382 15.8323 6.72534 16.2149 6.71629 16.5999C6.72562 16.964 6.66061 17.3262 6.52522 17.6643C6.42494 17.9241 6.26278 18.1554 6.05282 18.3383C5.91086 18.472 5.72676 18.5522 5.53214 18.565C5.43134 18.5721 5.3302 18.557 5.23587 18.5207C5.14155 18.4844 5.05635 18.4279 4.98625 18.3551V20.0158H4.07715V14.5738H5.07654ZM5.03665 17.3914C5.05902 17.4886 5.10519 17.5788 5.171 17.6538C5.19247 17.6802 5.21928 17.7017 5.24968 17.7169C5.28011 17.7321 5.3134 17.7407 5.34738 17.742C5.42708 17.7376 5.50211 17.7031 5.55734 17.6454C5.64213 17.5573 5.70285 17.4489 5.73369 17.3305C5.7847 17.1496 5.80807 16.962 5.80297 16.7741C5.80297 16.266 5.74209 15.907 5.61611 15.697C5.56454 15.6 5.4869 15.5193 5.39194 15.4641C5.29698 15.4088 5.18846 15.3811 5.07863 15.3842H4.98625V16.9715C4.98347 17.1131 5.00042 17.2544 5.03665 17.3914Z" fill="white"/>
<path d="M7.71751 19.7995C7.44459 19.5501 7.24681 19.2294 7.14642 18.8736C6.99735 18.376 6.92653 17.8582 6.93646 17.3388C6.92684 16.8057 6.99762 16.2741 7.14642 15.7621C7.2455 15.3961 7.44302 15.0642 7.71751 14.8026C7.9569 14.5972 8.26188 14.4844 8.57727 14.4844C8.89267 14.4844 9.19763 14.5972 9.43704 14.8026C9.71109 15.0633 9.90798 15.3946 10.006 15.76C10.1548 16.2735 10.2256 16.8064 10.216 17.3409C10.2294 17.8604 10.1622 18.3789 10.0165 18.8778C9.91788 19.2328 9.72146 19.5529 9.44963 19.8016C9.20616 19.9999 8.90177 20.1082 8.58776 20.1082C8.27376 20.1082 7.96937 19.9999 7.72591 19.8016L7.71751 19.7995ZM7.94216 18.4243C7.97897 18.6557 8.06564 18.8764 8.19619 19.071C8.23774 19.1332 8.29346 19.1847 8.3588 19.2212C8.42415 19.2577 8.49721 19.2782 8.57202 19.2809C8.79597 19.2809 8.97234 19.1171 9.10111 18.7896C9.25382 18.3154 9.31996 17.8176 9.29637 17.3199C9.30207 16.9415 9.27257 16.5633 9.20818 16.1904C9.17333 15.9467 9.08673 15.7133 8.95414 15.5059C8.91667 15.4376 8.86154 15.3806 8.7945 15.3409C8.72745 15.3012 8.65097 15.2803 8.57306 15.2803C8.49515 15.2803 8.41869 15.3012 8.35165 15.3409C8.28461 15.3806 8.22945 15.4376 8.192 15.5059C8.05985 15.7208 7.97469 15.9612 7.94216 16.2114C7.87715 16.5836 7.84693 16.961 7.85188 17.3388C7.84659 17.7027 7.87683 18.0663 7.94216 18.4243Z" fill="white"/>
<path d="M10.8353 15.8038C11.0567 15.3938 11.4052 15.0667 11.8284 14.8716C12.3239 14.6565 12.8612 14.5546 13.401 14.5735V15.3902C12.7543 15.3902 12.2609 15.5519 11.9187 15.8794C11.5765 16.207 11.4043 16.6919 11.4043 17.3491C11.4043 18.0063 11.5744 18.4409 11.9166 18.7474C12.2588 19.0539 12.7564 19.2093 13.401 19.2093V20.0155C12.473 20.0155 11.757 19.7916 11.2532 19.3437C10.7492 18.8958 10.4973 18.2274 10.4973 17.3386C10.4774 16.8066 10.5937 16.2783 10.8353 15.8038Z" fill="white"/>
<path d="M13.8881 15.8037C14.1097 15.393 14.4591 15.0657 14.8833 14.8715C15.3755 14.6544 15.9098 14.5497 16.4475 14.5649V15.3817C15.8029 15.3817 15.3095 15.5433 14.9652 15.8709C14.6209 16.1984 14.4508 16.6918 14.4508 17.3384C14.4508 17.9851 14.6209 18.4302 14.9631 18.7367C15.3053 19.0433 15.8029 19.1987 16.4454 19.1987V20.0154C15.5174 20.0154 14.8014 19.7914 14.2975 19.3435C13.7936 18.8956 13.5417 18.2273 13.5417 17.3384C13.5244 16.8057 13.6436 16.2773 13.8881 15.8037Z" fill="white"/>
<path d="M17.7812 14.5729V16.515L19.3223 15.2154L20.2293 14.4512V20.015H19.3223V16.3114L17.7812 17.611V20.015H16.8721V14.5729H17.7812Z" fill="white"/>
<path d="M21.5623 14.5736V16.5157L23.1033 15.2161L24.0061 14.4561V20.0157H23.0992V16.312L21.5581 17.6117V20.0157H20.6553V14.5736H21.5623Z" fill="white"/>
</g>
</g>
<defs>
<clipPath id="clip0_7294_9045">
<rect width="24" height="24" fill="white" transform="translate(2 2)"/>
</clipPath>
</defs>
</svg>
