<svg width="28" height="28" viewBox="0 0 28 28" fill="none" xmlns="http://www.w3.org/2000/svg">
<path fill-rule="evenodd" clip-rule="evenodd" d="M8.91881 13.4618C8.93936 8.79882 12.7154 5 17.4591 5C22.1617 5 26.0536 8.81962 25.9994 13.5C25.9994 18.1804 22.1617 22 17.4591 22C12.7692 22 8.93949 18.2545 8.91881 13.5384V19.8481H5.89182L2 7.47468H8.91881V13.4618ZM14.27 13.5C14.27 15.2215 15.7294 16.6741 17.4591 16.6741C19.2428 16.6741 20.6482 15.2215 20.6482 13.5C20.6482 11.7785 19.1888 10.3259 17.4591 10.3259C15.7294 10.3259 14.27 11.7785 14.27 13.5Z" fill="#2B72E8"/>
</svg>
