<svg width="28" height="28" viewBox="0 0 28 28" fill="none" xmlns="http://www.w3.org/2000/svg">
<g clip-path="url(#clip0_7294_6244)">
<path d="M3.7998 7.22363L6.7062 12.4186V15.5874L3.8032 20.7722L3.7998 7.22363Z" fill="#5B57A2"/>
<path d="M14.959 10.5289L17.6824 8.85969L23.256 8.85449L14.959 13.9373V10.5289Z" fill="#D90751"/>
<path d="M14.9437 7.1934L14.9591 14.0714L12.0459 12.2814V2L14.9437 7.1934Z" fill="#FAB718"/>
<path d="M23.2561 8.8542L17.6823 8.8594L14.9437 7.1934L12.0459 2L23.2561 8.8542Z" fill="#ED6F26"/>
<path d="M14.9591 20.801V17.464L12.0459 15.708L12.0475 25.9996L14.9591 20.801Z" fill="#63B22F"/>
<path d="M17.6758 19.147L6.706 12.4186L3.7998 7.22363L23.2444 19.1402L17.6758 19.147Z" fill="#1487C9"/>
<path d="M12.0479 26L14.9591 20.8014L17.6757 19.1474L23.2443 19.1406L12.0479 26Z" fill="#017F36"/>
<path d="M3.80273 20.7721L12.0693 15.7081L9.29013 14.0029L6.70573 15.5873L3.80273 20.7721Z" fill="#984995"/>
</g>
<defs>
<clipPath id="clip0_7294_6244">
<rect width="19.4" height="24" fill="white" transform="translate(3.7998 2)"/>
</clipPath>
</defs>
</svg>
