<svg width="28" height="28" viewBox="0 0 28 28" fill="none" xmlns="http://www.w3.org/2000/svg">
<path d="M25.1429 13.1429V9.71429C25.1414 9.18376 24.9758 8.66669 24.6689 8.23394C24.362 7.8012 23.9288 7.47398 23.4286 7.29714V4.57143C23.4286 3.88944 23.1577 3.23539 22.6754 2.75315C22.1932 2.27092 21.5391 2 20.8571 2H9.71429C9.0323 2 8.37825 2.27092 7.89601 2.75315C7.41377 3.23539 7.14286 3.88944 7.14286 4.57143C6.46087 4.57143 5.80682 4.84235 5.32458 5.32458C4.84235 5.80682 4.57143 6.46087 4.57143 7.14286C3.88944 7.14286 3.23539 7.41377 2.75315 7.89601C2.27092 8.37825 2 9.0323 2 9.71429V23.4286C2 24.1106 2.27092 24.7646 2.75315 25.2468C3.23539 25.7291 3.88944 26 4.57143 26H22.5714C23.2534 26 23.9075 25.7291 24.3897 25.2468C24.8719 24.7646 25.1429 24.1106 25.1429 23.4286V20C25.3702 20 25.5882 19.9097 25.7489 19.7489C25.9097 19.5882 26 19.3702 26 19.1429V14C26 13.7727 25.9097 13.5547 25.7489 13.3939C25.5882 13.2332 25.3702 13.1429 25.1429 13.1429ZM9.71429 3.71429H20.8571C21.0845 3.71429 21.3025 3.80459 21.4632 3.96534C21.624 4.12608 21.7143 4.3441 21.7143 4.57143V7.14286H20.8571C20.8571 6.46087 20.5862 5.80682 20.104 5.32458C19.6218 4.84235 18.9677 4.57143 18.2857 4.57143H8.85714C8.85714 4.3441 8.94745 4.12608 9.10819 3.96534C9.26894 3.80459 9.48696 3.71429 9.71429 3.71429ZM7.14286 6.28571H18.2857C18.513 6.28571 18.7311 6.37602 18.8918 6.53677C19.0526 6.69751 19.1429 6.91553 19.1429 7.14286H6.28571C6.28571 6.91553 6.37602 6.69751 6.53677 6.53677C6.69751 6.37602 6.91553 6.28571 7.14286 6.28571ZM23.4286 23.4286C23.4286 23.6559 23.3383 23.8739 23.1775 24.0347C23.0168 24.1954 22.7988 24.2857 22.5714 24.2857H4.57143C4.3441 24.2857 4.12608 24.1954 3.96534 24.0347C3.80459 23.8739 3.71429 23.6559 3.71429 23.4286V9.71429C3.71429 9.48696 3.80459 9.26894 3.96534 9.10819C4.12608 8.94745 4.3441 8.85714 4.57143 8.85714H22.5714C22.7988 8.85714 23.0168 8.94745 23.1775 9.10819C23.3383 9.26894 23.4286 9.48696 23.4286 9.71429V13.1429H21.7143C20.805 13.1429 19.9329 13.5041 19.2899 14.1471C18.6469 14.79 18.2857 15.6621 18.2857 16.5714C18.2857 17.4807 18.6469 18.3528 19.2899 18.9958C19.9329 19.6388 20.805 20 21.7143 20H23.4286V23.4286ZM24.2857 18.2857H21.7143C21.2596 18.2857 20.8236 18.1051 20.5021 17.7836C20.1806 17.4621 20 17.0261 20 16.5714C20 16.1168 20.1806 15.6807 20.5021 15.3592C20.8236 15.0378 21.2596 14.8571 21.7143 14.8571H24.2857V18.2857Z" fill="#8B8B8B"/>
</svg>
