<svg width="28" height="28" viewBox="0 0 28 28" fill="none" xmlns="http://www.w3.org/2000/svg">
<path d="M2.7334 10.8663H4.9334C5.1334 10.8663 5.7334 10.7996 6.00007 11.7329C6.20007 12.3329 6.46673 13.2663 6.86673 14.6663H7.00007C7.40007 13.1996 7.7334 12.1996 7.86673 11.7329C8.1334 10.7996 8.80007 10.8663 9.06673 10.8663H11.1334V17.2663H9.00007V13.4663H8.86673L7.7334 17.2663H6.1334L5.00007 13.4663H4.80007V17.2663H2.7334M12.0001 10.8663H14.1334V14.6663H14.3334L15.7334 11.5329C16.0001 10.9329 16.6001 10.8663 16.6001 10.8663H18.6001V17.2663H16.4667V13.4663H16.3334L14.9334 16.5996C14.6667 17.1996 14.0001 17.2663 14.0001 17.2663H12.0001M21.4667 15.3329V17.2663H19.4667V13.9329H26.0001C25.7334 14.7329 24.8001 15.3329 23.7334 15.3329" fill="#0F754E"/>
<path d="M26.133 13.5329C26.3997 12.3329 25.5997 10.8662 23.8663 10.8662H19.333C19.4663 12.2662 20.6663 13.5329 21.933 13.5329" fill="url(#paint0_linear_7294_6231)"/>
<defs>
<linearGradient id="paint0_linear_7294_6231" x1="25.333" y1="9.99954" x2="19.9997" y2="9.99954" gradientUnits="userSpaceOnUse">
<stop stop-color="#1F5CD7"/>
<stop offset="1" stop-color="#02AEFF"/>
</linearGradient>
</defs>
</svg>
