<svg width="28" height="28" viewBox="0 0 28 28" fill="none" xmlns="http://www.w3.org/2000/svg">
<g clip-path="url(#clip0_7294_3975)">
<path d="M21.3332 2H6.6668C4.0894 2 2 4.0894 2 6.6668V21.3332C2 23.9106 4.0894 26 6.6668 26H21.3332C23.9106 26 26 23.9106 26 21.3332V6.6668C26 4.0894 23.9106 2 21.3332 2Z" fill="#1928DC"/>
<mask id="mask0_7294_3975" style="mask-type:luminance" maskUnits="userSpaceOnUse" x="4" y="7" width="21" height="14">
<path d="M24.0105 7.95801H4.07739V20.106H24.0105V7.95801Z" fill="white"/>
</mask>
<g mask="url(#mask0_7294_3975)">
<path d="M7.43459 8.04785V13.4899H6.52757V8.83098H4.98439V13.4899H4.07739V8.04785H7.43459Z" fill="white"/>
<path d="M9.20233 13.2762C8.93061 13.0267 8.73301 12.707 8.63126 12.3524C8.48233 11.8548 8.41148 11.337 8.42131 10.8176C8.41169 10.2838 8.48246 9.75156 8.63126 9.23877C8.73118 8.8725 8.92852 8.54019 9.20233 8.27719C9.44174 8.07185 9.74672 7.95898 10.0621 7.95898C10.3775 7.95898 10.6825 8.07185 10.9219 8.27719C11.1971 8.53781 11.3942 8.87012 11.4908 9.23667C11.6398 9.75013 11.7106 10.2831 11.7008 10.8176C11.7106 11.3377 11.6397 11.8561 11.4908 12.3545C11.3917 12.7093 11.1953 13.0293 10.924 13.2783C10.6798 13.4752 10.3757 13.5825 10.0621 13.5825C9.74851 13.5825 9.44437 13.4752 9.20024 13.2783L9.20233 13.2762ZM9.42489 11.8989C9.46037 12.1362 9.54784 12.3628 9.68104 12.5624C9.72297 12.6252 9.77937 12.677 9.84548 12.7136C9.91162 12.7501 9.98554 12.7703 10.0611 12.7723C10.2857 12.7723 10.4621 12.6086 10.5922 12.281C10.7429 11.8064 10.8083 11.3088 10.7854 10.8113C10.7912 10.4329 10.7616 10.0548 10.6972 9.68178C10.6633 9.43655 10.5767 9.2016 10.4432 8.99314C10.4057 8.92483 10.3506 8.86784 10.2835 8.82812C10.2165 8.78843 10.14 8.76749 10.0621 8.76749C9.98418 8.76749 9.9077 8.78843 9.84068 8.82812C9.77364 8.86784 9.71849 8.92483 9.68104 8.99314C9.54913 9.20182 9.46191 9.4356 9.42489 9.67967C9.35969 10.0519 9.32946 10.4293 9.3346 10.8072C9.32887 11.1732 9.3591 11.5388 9.42489 11.8989Z" fill="white"/>
<path d="M14.5264 8.04785V10.1348H14.0456C13.8714 10.1444 13.6973 10.1127 13.5376 10.0424C13.4115 9.9755 13.3149 9.86395 13.2667 9.7296C13.2026 9.54267 13.1734 9.34553 13.1806 9.14803V8.04785H12.2736V9.14381C12.2473 9.61657 12.3885 10.0835 12.6726 10.4623C12.8217 10.628 13.0066 10.7576 13.2132 10.8412C13.4198 10.9249 13.6427 10.9605 13.8651 10.9452H14.5264V13.4899H15.4335V8.04785H14.5264Z" fill="white"/>
<path d="M19.4341 8.83098H18.3697V13.4899H17.4627V8.83098H16.3982V8.04785H19.4341V8.83098Z" fill="white"/>
<path d="M21.2791 8.04811H22.0056C22.3049 8.03192 22.6023 8.10501 22.8601 8.25806C23.085 8.40838 23.2598 8.62264 23.3619 8.87323C23.4867 9.1841 23.5652 9.51163 23.5949 9.84532L24.0148 13.4796H23.1078L22.8139 10.9413H21.2749V13.4901H20.3679V8.04811H21.2791ZM21.2791 10.1686H22.7278L22.69 9.85581C22.6732 9.65479 22.6316 9.45664 22.5661 9.26584C22.5202 9.13746 22.4302 9.02957 22.3121 8.9614C22.1598 8.8884 21.9915 8.85516 21.8229 8.86483H21.2791V10.1686Z" fill="white"/>
<path d="M5.07679 14.5738C5.37919 14.5658 5.67767 14.6437 5.9376 14.7985C6.19245 14.9607 6.39113 15.1974 6.50658 15.4766C6.65406 15.8323 6.72559 16.2149 6.71653 16.5999C6.72586 16.964 6.66086 17.3262 6.52546 17.6643C6.42518 17.9241 6.26302 18.1554 6.05307 18.3383C5.91111 18.472 5.72701 18.5522 5.53238 18.565C5.43158 18.5721 5.33044 18.557 5.23612 18.5207C5.14179 18.4844 5.05659 18.4279 4.98649 18.3551V20.0158H4.07739V14.5738H5.07679ZM5.03689 17.3914C5.05926 17.4886 5.10543 17.5788 5.17125 17.6538C5.19271 17.6802 5.21952 17.7017 5.24993 17.7169C5.28036 17.7321 5.31364 17.7407 5.34763 17.742C5.42732 17.7376 5.50236 17.7031 5.55758 17.6454C5.64237 17.5573 5.7031 17.4489 5.73394 17.3305C5.78495 17.1496 5.80831 16.962 5.80322 16.7741C5.80322 16.266 5.74234 15.907 5.61636 15.697C5.56478 15.6 5.48714 15.5193 5.39218 15.4641C5.29723 15.4088 5.18871 15.3811 5.07887 15.3842H4.98649V16.9715C4.98371 17.1131 5.00067 17.2544 5.03689 17.3914Z" fill="white"/>
<path d="M7.71799 19.7995C7.44507 19.5501 7.2473 19.2294 7.14691 18.8736C6.99784 18.376 6.92701 17.8582 6.93695 17.3388C6.92733 16.8057 6.99811 16.2741 7.14691 15.7621C7.24599 15.3961 7.44351 15.0642 7.71799 14.8026C7.95738 14.5972 8.26236 14.4844 8.57776 14.4844C8.89316 14.4844 9.19812 14.5972 9.43753 14.8026C9.71158 15.0633 9.90847 15.3946 10.0065 15.76C10.1553 16.2735 10.2261 16.8064 10.2165 17.3409C10.2299 17.8604 10.1626 18.3789 10.017 18.8778C9.91836 19.2328 9.72195 19.5529 9.45012 19.8016C9.20665 19.9999 8.90226 20.1082 8.58824 20.1082C8.27425 20.1082 7.96986 19.9999 7.72639 19.8016L7.71799 19.7995ZM7.94264 18.4243C7.97946 18.6557 8.06613 18.8764 8.19668 19.071C8.23823 19.1332 8.29395 19.1847 8.35929 19.2212C8.42464 19.2577 8.4977 19.2782 8.57251 19.2809C8.79645 19.2809 8.97283 19.1171 9.10159 18.7896C9.25431 18.3154 9.32045 17.8176 9.29686 17.3199C9.30256 16.9415 9.27306 16.5633 9.20867 16.1904C9.17382 15.9467 9.08722 15.7133 8.95463 15.5059C8.91716 15.4376 8.86203 15.3806 8.79498 15.3409C8.72794 15.3012 8.65146 15.2803 8.57355 15.2803C8.49564 15.2803 8.41918 15.3012 8.35214 15.3409C8.2851 15.3806 8.22994 15.4376 8.19249 15.5059C8.06033 15.7208 7.97518 15.9612 7.94264 16.2114C7.87764 16.5836 7.84741 16.961 7.85237 17.3388C7.84707 17.7027 7.87732 18.0663 7.94264 18.4243Z" fill="white"/>
<path d="M10.8361 15.8038C11.0574 15.3938 11.4059 15.0667 11.8292 14.8716C12.3246 14.6565 12.8619 14.5546 13.4017 14.5735V15.3902C12.7551 15.3902 12.2617 15.5519 11.9194 15.8794C11.5772 16.207 11.405 16.6919 11.405 17.3491C11.405 18.0063 11.5751 18.4409 11.9173 18.7474C12.2596 19.0539 12.7571 19.2093 13.4017 19.2093V20.0155C12.4737 20.0155 11.7578 19.7916 11.2539 19.3437C10.75 18.8958 10.498 18.2274 10.498 17.3386C10.4781 16.8066 10.5945 16.2783 10.8361 15.8038Z" fill="white"/>
<path d="M13.8886 15.8037C14.1102 15.393 14.4595 15.0657 14.8838 14.8715C15.376 14.6544 15.9103 14.5497 16.448 14.5649V15.3817C15.8034 15.3817 15.31 15.5433 14.9657 15.8709C14.6214 16.1984 14.4513 16.6918 14.4513 17.3384C14.4513 17.9851 14.6214 18.4302 14.9636 18.7367C15.3058 19.0433 15.8034 19.1987 16.4459 19.1987V20.0154C15.5179 20.0154 14.8019 19.7914 14.298 19.3435C13.7941 18.8956 13.5422 18.2273 13.5422 17.3384C13.5248 16.8057 13.6441 16.2773 13.8886 15.8037Z" fill="white"/>
<path d="M17.7812 14.5739V16.516L19.3223 15.2164L20.2293 14.4521V20.016H19.3223V16.3124L17.7812 17.612V20.016H16.8721V14.5739H17.7812Z" fill="white"/>
<path d="M21.5628 14.5736V16.5157L23.1038 15.2161L24.0066 14.4561V20.0157H23.0996V16.312L21.5586 17.6117V20.0157H20.6558V14.5736H21.5628Z" fill="white"/>
</g>
</g>
<defs>
<clipPath id="clip0_7294_3975">
<rect width="24" height="24" fill="white" transform="translate(2 2)"/>
</clipPath>
</defs>
</svg>
