<svg width="24" height="25" viewBox="0 0 24 25" fill="none" xmlns="http://www.w3.org/2000/svg">
<path d="M11.9998 8.50021V12.5002M11.9998 16.5002H12.0098M10.2898 3.3602L1.81978 17.5002C1.64514 17.8026 1.55274 18.1455 1.55177 18.4947C1.55079 18.8439 1.64127 19.1873 1.8142 19.4907C1.98714 19.7941 2.2365 20.047 2.53748 20.2241C2.83847 20.4012 3.18058 20.4964 3.52978 20.5002H20.4698C20.819 20.4964 21.1611 20.4012 21.4621 20.2241C21.7631 20.047 22.0124 19.7941 22.1854 19.4907C22.3583 19.1873 22.4488 18.8439 22.4478 18.4947C22.4468 18.1455 22.3544 17.8026 22.1798 17.5002L13.7098 3.3602C13.5315 3.06631 13.2805 2.82332 12.981 2.65469C12.6814 2.48605 12.3435 2.39746 11.9998 2.39746C11.656 2.39746 11.3181 2.48605 11.0186 2.65469C10.7191 2.82332 10.468 3.06631 10.2898 3.3602Z" stroke="#EE1C25" stroke-width="1.5" stroke-linecap="round" stroke-linejoin="round"/>
</svg>
